<svg width="145" height="17" viewBox="0 0 145 17" fill="none" xmlns="http://www.w3.org/2000/svg">
<path d="M0.546875 16V14.291L2.06055 13.998V3.79297L0.546875 3.5V1.78125H7.28516C8.37891 1.78125 9.31641 1.95052 10.0977 2.28906C10.8789 2.6276 11.4779 3.11263 11.8945 3.74414C12.3177 4.37565 12.5293 5.13411 12.5293 6.01953C12.5293 6.85286 12.321 7.59831 11.9043 8.25586C11.4876 8.91341 10.9082 9.43099 10.166 9.80859C9.42383 10.1862 8.56771 10.3783 7.59766 10.3848H4.91211V13.998L6.43555 14.291V16H0.546875ZM9.69727 16L7.30469 9.85742L9.87305 9.22266L11.9434 14.0078L13.1543 14.291V16H9.69727ZM4.91211 8.1875H7.23633C8.05664 8.1875 8.66862 8.01497 9.07227 7.66992C9.48242 7.31836 9.6875 6.81055 9.6875 6.14648C9.6875 5.48893 9.48568 4.96484 9.08203 4.57422C8.67839 4.17708 8.07943 3.97852 7.28516 3.97852H4.91211V8.1875ZM18.8477 16.2051C17.7344 16.2051 16.8587 15.8535 16.2207 15.1504C15.5892 14.4408 15.2734 13.3405 15.2734 11.8496V7.44531L14.1113 7.15234V5.43359H15.2734H18.125V11.8691C18.125 12.6243 18.2552 13.168 18.5156 13.5C18.7826 13.8255 19.1829 13.9883 19.7168 13.9883C20.14 13.9883 20.5143 13.9069 20.8398 13.7441C21.1654 13.5749 21.4323 13.3372 21.6406 13.0312V7.44531L20.3809 7.15234V5.43359H21.6406H24.4922V13.998L25.7617 14.291V16H21.9922L21.7969 14.6621C21.4648 15.1569 21.0482 15.5378 20.5469 15.8047C20.0456 16.0716 19.4792 16.2051 18.8477 16.2051ZM31.3574 16.2051C30.5697 16.2051 29.834 16.1302 29.1504 15.9805C28.4733 15.8307 27.8223 15.6159 27.1973 15.3359L27.168 12.3477H29.1504L29.5312 13.8711C29.7526 13.9818 29.9935 14.0697 30.2539 14.1348C30.5208 14.1999 30.8236 14.2324 31.1621 14.2324C31.8001 14.2324 32.2493 14.1283 32.5098 13.9199C32.7702 13.7116 32.9004 13.4512 32.9004 13.1387C32.9004 12.8457 32.7604 12.5885 32.4805 12.3672C32.207 12.1393 31.6569 11.9408 30.8301 11.7715C29.5801 11.5111 28.6589 11.1074 28.0664 10.5605C27.474 10.0137 27.1777 9.3138 27.1777 8.46094C27.1777 7.875 27.3242 7.34115 27.6172 6.85938C27.9167 6.3776 28.3691 5.99023 28.9746 5.69727C29.5866 5.4043 30.3678 5.25781 31.3184 5.25781C32.1126 5.25781 32.8385 5.33594 33.4961 5.49219C34.1602 5.64193 34.7168 5.84049 35.166 6.08789L35.1953 8.97852H33.2227L32.9199 7.5918C32.7441 7.46159 32.5358 7.36393 32.2949 7.29883C32.0605 7.23372 31.7936 7.20117 31.4941 7.20117C30.9928 7.20117 30.6087 7.30208 30.3418 7.50391C30.0749 7.70573 29.9414 7.96615 29.9414 8.28516C29.9414 8.46745 29.987 8.63672 30.0781 8.79297C30.1758 8.94922 30.3646 9.0957 30.6445 9.23242C30.9245 9.36914 31.3314 9.49935 31.8652 9.62305C33.1738 9.92253 34.1276 10.3229 34.7266 10.8242C35.3255 11.319 35.625 12.0156 35.625 12.9141C35.625 13.8971 35.2669 14.6914 34.5508 15.2969C33.8411 15.9023 32.7767 16.2051 31.3574 16.2051ZM41.4551 16.2051C40.6673 16.2051 39.9316 16.1302 39.248 15.9805C38.571 15.8307 37.9199 15.6159 37.2949 15.3359L37.2656 12.3477H39.248L39.6289 13.8711C39.8503 13.9818 40.0911 14.0697 40.3516 14.1348C40.6185 14.1999 40.9212 14.2324 41.2598 14.2324C41.8978 14.2324 42.347 14.1283 42.6074 13.9199C42.8678 13.7116 42.998 13.4512 42.998 13.1387C42.998 12.8457 42.8581 12.5885 42.5781 12.3672C42.3047 12.1393 41.7546 11.9408 40.9277 11.7715C39.6777 11.5111 38.7565 11.1074 38.1641 10.5605C37.5716 10.0137 37.2754 9.3138 37.2754 8.46094C37.2754 7.875 37.4219 7.34115 37.7148 6.85938C38.0143 6.3776 38.4668 5.99023 39.0723 5.69727C39.6842 5.4043 40.4655 5.25781 41.416 5.25781C42.2103 5.25781 42.9362 5.33594 43.5938 5.49219C44.2578 5.64193 44.8145 5.84049 45.2637 6.08789L45.293 8.97852H43.3203L43.0176 7.5918C42.8418 7.46159 42.6335 7.36393 42.3926 7.29883C42.1582 7.23372 41.8913 7.20117 41.5918 7.20117C41.0905 7.20117 40.7064 7.30208 40.4395 7.50391C40.1725 7.70573 40.0391 7.96615 40.0391 8.28516C40.0391 8.46745 40.0846 8.63672 40.1758 8.79297C40.2734 8.94922 40.4622 9.0957 40.7422 9.23242C41.0221 9.36914 41.429 9.49935 41.9629 9.62305C43.2715 9.92253 44.2253 10.3229 44.8242 10.8242C45.4232 11.319 45.7227 12.0156 45.7227 12.9141C45.7227 13.8971 45.3646 14.6914 44.6484 15.2969C43.9388 15.9023 42.8743 16.2051 41.4551 16.2051ZM46.9336 16V14.291L48.3105 13.998V7.44531L46.7871 7.15234V5.43359H51.1621V13.998L52.5293 14.291V16H46.9336ZM48.2129 3.19727V0.765625H51.1621V3.19727H48.2129ZM57.0215 16.2051C55.9733 16.2051 55.14 15.9251 54.5215 15.3652C53.903 14.7988 53.5938 14.0306 53.5938 13.0605C53.5938 12.3965 53.7728 11.8138 54.1309 11.3125C54.4954 10.8112 55.0293 10.4173 55.7324 10.1309C56.4421 9.8444 57.3145 9.70117 58.3496 9.70117H59.7461V8.91992C59.7461 8.41211 59.5964 8.00195 59.2969 7.68945C59.0039 7.37044 58.5612 7.21094 57.9688 7.21094C57.6628 7.21094 57.3893 7.25 57.1484 7.32812C56.9076 7.39974 56.6862 7.50391 56.4844 7.64062L56.2598 9.03711H54.209L54.1699 6.29297C54.7233 5.98047 55.3223 5.72656 55.9668 5.53125C56.6113 5.33594 57.3307 5.23828 58.125 5.23828C59.5052 5.23828 60.5957 5.56055 61.3965 6.20508C62.1973 6.8431 62.5977 7.75781 62.5977 8.94922V13.3047C62.5977 13.4479 62.5977 13.5911 62.5977 13.7344C62.6042 13.8711 62.6172 14.0046 62.6367 14.1348L63.7402 14.291V16H60.2051C60.1335 15.8177 60.0618 15.6224 59.9902 15.4141C59.9186 15.2057 59.8665 14.9974 59.834 14.7891C59.4954 15.2188 59.0951 15.5638 58.6328 15.8242C58.1771 16.0781 57.64 16.2051 57.0215 16.2051ZM57.7832 14.0957C58.1803 14.0957 58.5579 14.0078 58.916 13.832C59.2741 13.6497 59.5508 13.4121 59.7461 13.1191V11.4492H58.3398C57.7148 11.4492 57.2396 11.5924 56.9141 11.8789C56.5951 12.1654 56.4355 12.5104 56.4355 12.9141C56.4355 13.2917 56.5527 13.5846 56.7871 13.793C57.028 13.9948 57.36 14.0957 57.7832 14.0957ZM64.8926 16V14.1348L69.502 9.18359C69.9707 8.65625 70.3385 8.19727 70.6055 7.80664C70.8724 7.41602 71.0612 7.0612 71.1719 6.74219C71.2891 6.41667 71.3477 6.0944 71.3477 5.77539C71.3477 5.22201 71.1882 4.75326 70.8691 4.36914C70.5566 3.98503 70.0944 3.79297 69.4824 3.79297C68.8249 3.79297 68.3268 4.00781 67.9883 4.4375C67.6497 4.86068 67.4805 5.44661 67.4805 6.19531H64.707L64.6875 6.13672C64.668 5.27734 64.8503 4.50586 65.2344 3.82227C65.625 3.13216 66.1849 2.58529 66.9141 2.18164C67.6497 1.77799 68.5156 1.57617 69.5117 1.57617C70.4883 1.57617 71.3249 1.75195 72.0215 2.10352C72.7246 2.44857 73.265 2.93359 73.6426 3.55859C74.0202 4.18359 74.209 4.90625 74.209 5.72656C74.209 6.29297 74.1081 6.82682 73.9062 7.32812C73.7044 7.82292 73.3887 8.34701 72.959 8.90039C72.5293 9.45378 71.9759 10.0885 71.2988 10.8047L68.5352 13.7734L68.5547 13.8223H72.2363L72.3828 12.4648H74.5898V16H64.8926ZM81.0059 16.2051C79.5215 16.2051 78.3464 15.7201 77.4805 14.75C76.6146 13.7734 76.1816 12.3444 76.1816 10.4629V7.32812C76.1816 5.45312 76.6113 4.02734 77.4707 3.05078C78.3366 2.06771 79.5085 1.57617 80.9863 1.57617C82.4577 1.57617 83.6263 2.06771 84.4922 3.05078C85.3646 4.02734 85.8008 5.45312 85.8008 7.32812V10.4629C85.8008 12.3444 85.3678 13.7734 84.502 14.75C83.6426 15.7201 82.4772 16.2051 81.0059 16.2051ZM81.0059 14.0176C81.6439 14.0176 82.1289 13.7572 82.4609 13.2363C82.793 12.7155 82.959 11.8822 82.959 10.7363V7.03516C82.959 5.90234 82.7897 5.07552 82.4512 4.55469C82.1126 4.03385 81.6243 3.77344 80.9863 3.77344C80.3418 3.77344 79.8535 4.03385 79.5215 4.55469C79.1895 5.07552 79.0234 5.90234 79.0234 7.03516V10.7363C79.0234 11.8822 79.1895 12.7155 79.5215 13.2363C79.86 13.7572 80.3548 14.0176 81.0059 14.0176ZM87.4121 16V14.1348L92.0215 9.18359C92.4902 8.65625 92.8581 8.19727 93.125 7.80664C93.3919 7.41602 93.5807 7.0612 93.6914 6.74219C93.8086 6.41667 93.8672 6.0944 93.8672 5.77539C93.8672 5.22201 93.7077 4.75326 93.3887 4.36914C93.0762 3.98503 92.6139 3.79297 92.002 3.79297C91.3444 3.79297 90.8464 4.00781 90.5078 4.4375C90.1693 4.86068 90 5.44661 90 6.19531H87.2266L87.207 6.13672C87.1875 5.27734 87.3698 4.50586 87.7539 3.82227C88.1445 3.13216 88.7044 2.58529 89.4336 2.18164C90.1693 1.77799 91.0352 1.57617 92.0312 1.57617C93.0078 1.57617 93.8444 1.75195 94.541 2.10352C95.2441 2.44857 95.7845 2.93359 96.1621 3.55859C96.5397 4.18359 96.7285 4.90625 96.7285 5.72656C96.7285 6.29297 96.6276 6.82682 96.4258 7.32812C96.224 7.82292 95.9082 8.34701 95.4785 8.90039C95.0488 9.45378 94.4954 10.0885 93.8184 10.8047L91.0547 13.7734L91.0742 13.8223H94.7559L94.9023 12.4648H97.1094V16H87.4121ZM102.559 16V14.291L104.082 13.998V12.6016H98.2812L98.1445 11.2051L104.053 1.78125H106.924V10.707H108.535V12.6016H106.924V13.998L108.438 14.291V16H102.559ZM100.801 10.707H104.082V5.58008L104.023 5.56055L103.789 5.9707L100.801 10.707ZM110.322 16V13.5H113.164V16H110.322ZM114.668 16V14.291L116.035 13.998V7.44531L114.521 7.15234V5.43359H118.691L118.818 6.94727C119.17 6.4069 119.603 5.98698 120.117 5.6875C120.638 5.38802 121.23 5.23828 121.895 5.23828C122.943 5.23828 123.763 5.57357 124.355 6.24414C124.948 6.91471 125.244 7.96615 125.244 9.39844V13.998L126.611 14.291V16H121.162V14.291L122.383 13.998V9.4082C122.383 8.69857 122.243 8.19727 121.963 7.9043C121.683 7.60482 121.266 7.45508 120.713 7.45508C120.303 7.45508 119.945 7.54297 119.639 7.71875C119.339 7.88802 119.089 8.13216 118.887 8.45117V13.998L120.039 14.291V16H114.668ZM132.49 16.2051C131.481 16.2051 130.599 15.9837 129.844 15.541C129.089 15.0918 128.503 14.4766 128.086 13.6953C127.676 12.9141 127.471 12.0221 127.471 11.0195V10.6289C127.471 9.58073 127.666 8.65299 128.057 7.8457C128.447 7.0319 128.997 6.39388 129.707 5.93164C130.423 5.46289 131.266 5.23177 132.236 5.23828C133.193 5.23828 133.997 5.42708 134.648 5.80469C135.299 6.18229 135.794 6.72591 136.133 7.43555C136.471 8.14518 136.641 9.00456 136.641 10.0137V11.5664H130.43L130.41 11.625C130.449 12.0872 130.563 12.5007 130.752 12.8652C130.947 13.2233 131.221 13.5065 131.572 13.7148C131.924 13.9167 132.35 14.0176 132.852 14.0176C133.372 14.0176 133.857 13.9525 134.307 13.8223C134.762 13.6855 135.205 13.487 135.635 13.2266L136.406 14.9844C135.97 15.3359 135.42 15.6289 134.756 15.8633C134.098 16.0911 133.343 16.2051 132.49 16.2051ZM130.449 9.68164H133.975V9.42773C133.975 8.99805 133.916 8.63021 133.799 8.32422C133.688 8.01172 133.506 7.77083 133.252 7.60156C133.005 7.43229 132.682 7.34766 132.285 7.34766C131.908 7.34766 131.589 7.44857 131.328 7.65039C131.068 7.8457 130.863 8.11589 130.713 8.46094C130.57 8.80599 130.472 9.19661 130.42 9.63281L130.449 9.68164ZM142.109 16.2051C141.126 16.2051 140.368 15.9349 139.834 15.3945C139.307 14.8542 139.043 13.998 139.043 12.8262V7.43555H137.588V5.43359H139.043V2.8457H141.885V5.43359H143.828V7.43555H141.885V12.8164C141.885 13.2266 141.969 13.5195 142.139 13.6953C142.314 13.8711 142.552 13.959 142.852 13.959C143.014 13.959 143.184 13.9492 143.359 13.9297C143.542 13.9036 143.698 13.8776 143.828 13.8516L144.072 15.9121C143.779 15.9967 143.46 16.0651 143.115 16.1172C142.777 16.1758 142.441 16.2051 142.109 16.2051Z" fill="black"/>
</svg>
