<svg width="54" height="29" viewBox="0 0 54 29" fill="none" xmlns="http://www.w3.org/2000/svg">
  <path fill-rule="evenodd" clip-rule="evenodd"
        d="M39.7432 6.58027C39.8475 6.42391 39.9517 6.31967 40.1081 6.16331L45.0595 1.21181C46.6752 -0.403938 49.3333 -0.403938 51.0012 1.21181C52.6169 2.82757 52.6169 5.48573 51.0012 7.10148L46.7273 11.3233C50.4279 14.8154 52.6169 19.1414 53.503 24.2493C53.972 27.0638 53.086 28.1584 49.9588 28.1584H4.50993C1.17423 28.2105 0.0275859 27.0117 0.600909 24.0929C1.53907 19.402 3.46752 15.3887 6.43838 12.1572L1.59119 7.36209C-0.0245375 5.74634 -0.0245375 3.08817 1.59119 1.47242C3.20692 -0.143333 5.86506 -0.143333 7.5329 1.47242L12.4843 6.42392C12.6928 6.6324 12.9013 6.893 13.0576 7.15361C13.9958 6.6324 15.0382 6.1633 16.0806 5.74633C24.2635 2.51483 32.2379 2.87968 39.7432 6.58027ZM16.8624 18.7766C16.8624 19.9233 15.9243 20.8614 14.7776 20.8614C13.631 20.8614 12.6928 19.9233 12.6928 18.7766C12.6928 17.6299 13.631 16.6917 14.7776 16.6917C15.9243 16.6917 16.8624 17.6299 16.8624 18.7766ZM39.2741 20.8614C40.4208 20.8614 41.3589 19.9233 41.3589 18.7766C41.3589 17.6299 40.4208 16.6917 39.2741 16.6917C38.1275 16.6917 37.1893 17.6299 37.1893 18.7766C37.1893 19.9233 38.1275 20.8614 39.2741 20.8614Z"
        fill="currentColor"/>
</svg>
