<svg width="20" height="20" viewBox="0 0 20 20" fill="none" xmlns="http://www.w3.org/2000/svg">
<g clip-path="url(#clip0_1532_20870)">
<path d="M2.91768 6.67188C2.22749 6.67188 1.66797 7.23139 1.66797 7.92158V13.7535C1.66797 14.4437 2.22749 15.0032 2.91768 15.0032C3.60787 15.0032 4.16738 14.4437 4.16738 13.7535V7.92158C4.16738 7.23139 3.60787 6.67188 2.91768 6.67188Z" fill="#4CAF50"/>
<path d="M17.0817 6.67188C16.3915 6.67188 15.832 7.23139 15.832 7.92158V13.7535C15.832 14.4437 16.3915 15.0032 17.0817 15.0032C17.7719 15.0032 18.3314 14.4437 18.3314 13.7535V7.92158C18.3314 7.23139 17.772 6.67188 17.0817 6.67188Z" fill="#4CAF50"/>
<path d="M14.5811 6.67188H5.41658C5.18652 6.67188 5 6.85839 5 7.08846V13.7535C4.9998 14.7435 5.69636 15.5967 6.66629 15.7947V18.7524C6.66629 19.4426 7.22581 20.0021 7.916 20.0021C8.60619 20.0021 9.1657 19.4426 9.1657 18.7524V15.8364H10.832V18.7524C10.832 19.4426 11.3915 20.0021 12.0817 20.0021C12.7719 20.0021 13.3314 19.4426 13.3314 18.7524V15.7947C14.3013 15.5967 14.9979 14.7435 14.9977 13.7535V7.08846C14.9977 6.85839 14.8111 6.67188 14.5811 6.67188Z" fill="#4CAF50"/>
<path d="M13.0274 1.73096L14.0429 0.716199C14.2084 0.556354 14.213 0.292665 14.0532 0.127157C13.8933 -0.0383117 13.6296 -0.0428809 13.4641 0.116925C13.4607 0.120284 13.4573 0.123682 13.4539 0.127157L12.2709 1.31024C10.8219 0.680817 9.1767 0.680817 7.72774 1.31024L6.5447 0.126337C6.37923 -0.0335081 6.1155 -0.0288998 5.95566 0.136569C5.79975 0.298016 5.79975 0.553932 5.95566 0.71534L6.97042 1.73092C5.73332 2.54948 4.9924 3.93669 5.00006 5.42006C5.00006 5.65012 5.18658 5.83664 5.41664 5.83664H14.5812C14.8112 5.83664 14.9978 5.65012 14.9978 5.42006C15.0054 3.93673 14.2645 2.54952 13.0274 1.73096Z" fill="#4CAF50"/>
<path d="M7.91658 4.1691C8.14665 4.1691 8.33316 3.98259 8.33316 3.75252C8.33316 3.52245 8.14665 3.33594 7.91658 3.33594C7.68651 3.33594 7.5 3.52245 7.5 3.75252C7.5 3.98259 7.68651 4.1691 7.91658 4.1691Z" fill="#FAFAFA"/>
<path d="M12.0806 4.1691C12.3107 4.1691 12.4972 3.98259 12.4972 3.75252C12.4972 3.52245 12.3107 3.33594 12.0806 3.33594C11.8506 3.33594 11.6641 3.52245 11.6641 3.75252C11.6641 3.98259 11.8506 4.1691 12.0806 4.1691Z" fill="#FAFAFA"/>
</g>
<defs>
<clipPath id="clip0_1532_20870">
<rect width="20" height="20" fill="white"/>
</clipPath>
</defs>
</svg>
