<svg width="64" height="64" viewBox="0 0 64 64" fill="none" xmlns="http://www.w3.org/2000/svg">
  <path
    d="M48.6832 31.3178C48.6832 31.3178 34.4161 27.8851 29.3033 23.6281C24.1904 19.3711 21.2509 18.0363 20.7281 18.5983C20.2054 19.1603 16.6814 23.9126 15.257 30.2755C15.257 30.2755 13.4551 29.4968 13.2948 32.417C13.1346 35.3372 14.5358 35.4789 14.5358 35.4789C14.5358 35.4789 13.8514 46.1465 15.9337 48.289C15.9337 48.289 26.0824 44.5808 33.3668 44.8758C40.6512 45.1706 45.7582 44.8758 45.7582 44.8758L44.5905 46.3284L45.2393 47.5671C45.2393 47.5671 42.0094 53.7479 46.4149 55.7697C46.4149 55.7697 47.5509 56.8102 48.3095 51.4128C49.0682 46.0155 54.027 43.4096 54.5929 43.3798C55.1587 43.35 57.1688 44.1472 58.3815 43.4765C59.5942 42.8057 62.4802 38.2288 58.9015 36.1779C55.3228 34.1272 50.9053 33.1696 50.9053 33.1696L49.8389 31.6441L48.6832 31.3178Z"
    fill="white"/>
  <path
    d="M48.6832 31.3178C48.6832 31.3178 34.4161 27.8851 29.3033 23.6281C24.1904 19.3711 21.2509 18.0363 20.7281 18.5983C20.2054 19.1603 16.6814 23.9126 15.257 30.2755C15.257 30.2755 13.4551 29.4968 13.2948 32.417C13.1346 35.3372 14.5358 35.4789 14.5358 35.4789C14.5358 35.4789 13.8514 46.1465 15.9337 48.289C15.9337 48.289 26.0824 44.5808 33.3668 44.8758C40.6512 45.1706 45.7582 44.8758 45.7582 44.8758L44.5905 46.3284L45.2393 47.5671C45.2393 47.5671 42.0094 53.7479 46.4149 55.7697C46.4149 55.7697 47.5509 56.8102 48.3095 51.4128C49.0682 46.0155 54.027 43.4096 54.5929 43.3798C55.1587 43.35 57.1688 44.1472 58.3815 43.4765C59.5942 42.8057 62.4802 38.2288 58.9015 36.1779C55.3228 34.1272 50.9053 33.1696 50.9053 33.1696L49.8389 31.6441L48.6832 31.3178Z"
    fill="#80ED99"/>
  <path
    d="M18.6259 29.3009C18.6321 29.302 18.6375 29.3042 18.6434 29.3057C19.2279 26.8907 20.0336 24.5293 21.0516 22.2618C21.532 21.1921 22.0596 20.1436 22.6336 19.1212C22.9086 18.6314 23.1907 17.9853 23.7053 17.7034C23.9335 17.5784 24.1699 17.5489 24.4079 17.6631C24.6636 17.786 24.8794 18.059 24.7258 18.3434C24.6763 18.435 24.7957 18.5508 24.8631 18.4516C25.2373 17.9005 24.579 17.2221 24.0039 17.2678C23.0148 17.3465 22.4802 18.7067 22.0742 19.4421C20.944 21.489 20.0001 23.6369 19.25 25.8515C18.869 26.9762 18.5378 28.1182 18.2568 29.2727C18.3785 29.2694 18.4989 29.2772 18.6259 29.3009Z"
    fill="black"/>
  <path
    d="M51.1111 43.5148C46.6839 42.7471 43.7418 42.8335 39.2539 43.0127C34.7499 43.1924 30.2444 43.831 25.8761 44.9476C23.5872 45.5329 21.2663 46.1941 19.0778 47.1026C21.3923 40.2861 23.1859 33.3295 24.2019 26.1951C24.4912 24.1632 24.786 22.1052 24.8757 20.0536C24.8902 19.7198 24.4394 19.6456 24.3954 19.9946C24.1677 21.7934 24.0246 23.6016 23.7853 25.3998C23.5432 27.2178 23.2579 29.0309 22.9285 30.8351C22.2849 34.3605 21.4742 37.8577 20.487 41.3029C19.9589 43.1459 19.3932 44.9824 18.7559 46.7912C17.7811 44.9835 17.6701 42.7511 17.5669 40.7457C17.4601 38.6675 17.5189 36.5812 17.7379 34.512C17.7649 34.2566 17.7947 34.0015 17.8267 33.7466C17.731 33.7253 17.6363 33.7017 17.5429 33.6696C17.5087 33.671 17.4738 33.671 17.4385 33.6703C17.1788 35.6773 17.0685 37.7035 17.1146 39.7258C17.1449 41.0457 17.227 42.3724 17.41 43.6806C17.5943 44.9976 17.9304 46.2868 18.6557 47.4155C18.6565 47.4167 18.6575 47.4177 18.6583 47.419C18.6772 47.4733 18.722 47.5155 18.7808 47.4968C18.7819 47.4964 18.783 47.4961 18.7839 47.4957C18.8322 47.4997 18.882 47.4829 18.922 47.4515C21.0055 46.7879 23.0672 46.0894 25.1898 45.5519C27.3578 45.0031 29.5513 44.5527 31.7625 44.217C36.1853 43.5453 40.6785 43.3163 45.1466 43.5432C47.6624 43.6711 48.5961 43.6072 51.0833 44.0041C51.3739 44.0505 51.3836 43.5621 51.1111 43.5148Z"
    fill="black"/>
  <path
    d="M52.3967 30.1425C44.4486 28.7732 36.8415 25.706 30.1262 21.2459C28.2564 20.0039 26.5346 18.5866 24.7317 17.256C24.6212 17.1744 24.5509 17.3447 24.6312 17.4236C26.0819 18.8504 27.7803 20.067 29.4507 21.2212C31.1083 22.3666 32.8308 23.4186 34.6012 24.3805C38.1539 26.3111 41.9069 27.8683 45.7841 29.0163C47.9485 29.6571 50.1492 30.1702 52.3737 30.5538C52.6161 30.5957 52.6265 30.182 52.3967 30.1425Z"
    fill="black"/>
  <path
    d="M63.1651 40.733C63.4564 40.0413 63.62 39.2966 63.6172 38.5447C63.6119 37.2181 63.1062 35.6503 62.0539 34.7752C61.9627 34.6994 61.905 34.8439 61.9501 34.9142C62.3123 35.4796 62.6661 36.0084 62.8802 36.6525C63.0848 37.2685 63.1944 37.91 63.1736 38.56C63.1519 39.2427 62.9946 39.9217 62.7138 40.5444C62.4301 41.1737 61.9924 41.6429 61.594 42.1924C61.5863 42.203 61.5802 42.2144 61.5752 42.2263C60.0353 42.2208 58.4822 42.3356 56.9442 42.407C56.1633 42.4434 55.3821 42.476 54.6014 42.5159C53.9515 42.5492 53.2555 42.5358 52.6059 42.637C52.6888 42.44 52.7668 42.2424 52.8445 42.0528C53.0617 41.5228 53.2584 40.9849 53.4263 40.4372C53.7739 39.3036 54.005 38.1349 54.1219 36.955C54.2368 35.7946 54.2337 34.6274 54.1106 33.4678C54.0648 33.0354 53.998 32.579 53.869 32.1492C54.9968 32.6317 56.1824 32.9991 57.3385 33.4076C57.9105 33.6098 58.4824 33.812 59.0554 34.011C59.6461 34.2161 61.2951 35.0188 61.9012 35.1725C62.1401 35.233 62.2099 34.8891 62.0031 34.7982C61.4299 34.5463 59.7538 33.8242 59.1613 33.622C58.5878 33.4262 58.013 33.2335 57.4383 33.0407C56.2708 32.649 55.105 32.2051 53.9135 31.892C53.8603 31.878 53.8201 31.8953 53.795 31.9261C53.6078 31.4113 53.3151 30.9505 52.8385 30.6385C52.7584 30.5862 52.6865 30.6982 52.745 30.7636C53.5246 31.6325 53.706 32.793 53.7763 33.916C53.8441 34.9971 53.8178 36.0846 53.6905 37.1604C53.5606 38.2573 53.3223 39.3424 52.988 40.3949C52.8206 40.9218 52.6296 41.4413 52.4092 41.9483C52.1899 42.4526 51.9002 42.9309 51.6988 43.441C51.6073 43.6726 51.9269 43.8607 52.0746 43.6515C52.234 43.4259 52.3667 43.1717 52.486 42.9099C53.2177 42.9892 54.0039 42.9122 54.7365 42.8935C55.517 42.8736 56.2976 42.8515 57.078 42.8295C58.6038 42.7864 60.1469 42.7863 61.6686 42.6656C61.7252 42.6611 61.7647 42.6315 61.7889 42.5898C61.8222 42.5905 61.8566 42.581 61.8903 42.5563C62.4742 42.1297 62.8895 41.3878 63.1651 40.733Z"
    fill="black"/>
  <path
    d="M22.5482 34.779C22.3408 34.7301 22.1338 34.6808 21.927 34.631C21.0596 34.4218 20.1908 34.2183 19.3222 34.0144C18.465 33.8131 17.5906 33.5628 16.7128 33.4802C16.6996 33.4789 16.6878 33.4803 16.6767 33.4829C16.8504 32.8231 17.0254 32.1638 17.203 31.505C17.3739 30.8705 17.5993 30.2266 17.6871 29.5745C17.6961 29.5089 17.6748 29.4555 17.6391 29.4183C19.4716 29.4957 21.308 29.5152 23.1416 29.5597C23.3105 29.5638 23.4794 29.5681 23.6483 29.5722C23.6435 29.5431 23.6428 29.5127 23.6504 29.4813L23.7188 29.1973C23.5034 29.1902 23.2883 29.1827 23.073 29.1754C21.2701 29.1144 19.4658 29.0287 17.6621 29C17.4676 28.997 17.4179 29.2465 17.5184 29.3614C17.4478 29.3561 17.3748 29.3911 17.3404 29.4803C17.1015 30.1028 16.9952 30.7962 16.8405 31.4444C16.7577 31.7914 16.6726 32.1378 16.5884 32.4845C16.5736 31.4057 16.7945 30.3227 17.2652 29.3485C17.3116 29.2524 17.1791 29.127 17.1232 29.2366C16.4417 30.574 16.1634 32.0153 16.3574 33.5097C16.3734 33.6327 16.5153 33.6882 16.6014 33.6311C16.6097 33.669 16.6323 33.7036 16.6705 33.7196C17.4525 34.0478 18.303 34.2404 19.1208 34.4621C19.9871 34.6967 20.8531 34.933 21.7209 35.1625C21.9371 35.2197 22.1534 35.2777 22.3695 35.3362C22.4236 35.1489 22.4835 34.9633 22.5482 34.779Z"
    fill="black"/>
  <path
    d="M24.6214 20.5442C24.804 20.1254 24.8441 19.6443 24.8085 19.1921C24.7801 18.831 24.7261 18.344 24.4707 18.0611C24.2467 17.813 23.9089 17.7717 23.6616 18.0103C23.3465 18.3146 23.0522 18.8313 22.8894 19.234C22.8635 19.2977 22.9341 19.379 22.9995 19.3462C23.0072 19.3424 23.0147 19.3385 23.0224 19.3347C23.0393 19.3263 23.05 19.3127 23.0558 19.2973C23.2352 19.1293 23.3784 18.9186 23.5273 18.7241C23.6468 18.5679 23.9427 18.0712 24.2254 18.332C24.3175 18.4172 24.3418 18.6491 24.3606 18.7639C24.4547 19.3393 24.3635 19.8824 24.2745 20.4502C24.2397 20.6729 24.5343 20.7438 24.6214 20.5442Z"
    fill="black"/>
  <path
    d="M19.0144 46.1193C18.5562 45.8471 18.6054 45.3746 18.5802 44.9061C18.5577 44.4865 18.5329 44.0669 18.5075 43.6476C18.4596 42.8564 18.399 42.0659 18.3439 41.2751C18.335 41.1466 18.1359 41.1472 18.1361 41.2812C18.1373 42.4127 18.138 43.5439 18.1538 44.6753C18.1621 45.2755 18.0761 46.4907 18.9368 46.5614C19.2052 46.5835 19.194 46.226 19.0144 46.1193Z"
    fill="black"/>
  <path
    d="M24.8059 29.0159C24.7349 28.9561 24.6722 29.0805 24.7353 29.1337C24.8064 29.1935 24.8692 29.0691 24.8059 29.0159Z"
    fill="black"/>
  <path
    d="M22.4985 39.9484C23.2039 37.3651 23.7777 34.7488 24.4001 32.145C24.4198 32.063 24.3026 32.0004 24.2779 32.0927C23.5856 34.6705 22.845 37.2363 22.2348 39.8354C22.1933 40.012 22.4442 40.1476 22.4985 39.9484Z"
    fill="black"/>
  <path
    d="M19.3369 47.6033C20.6482 45.7242 21.4548 43.4185 22.001 41.212C22.0254 41.1131 21.8887 41.038 21.853 41.1485C21.1439 43.3441 20.06 45.2883 18.9338 47.2856C18.7826 47.5537 19.1363 47.8907 19.3369 47.6033Z"
    fill="black"/>
  <path
    d="M25.1941 26.6454C25.6153 24.9792 25.6949 23.1595 25.7338 21.4483C25.7652 20.0613 26.0467 18.071 24.6401 17.2445C24.3471 17.0723 24.2117 17.6106 24.4827 17.7653C25.2709 18.215 25.3318 19.1949 25.3777 20.001C25.4185 20.7175 25.4189 21.4363 25.4017 22.1536C25.366 23.6496 25.1447 25.1135 25.0291 26.6008C25.0215 26.6976 25.1664 26.755 25.1941 26.6454Z"
    fill="black"/>
  <path
    d="M50.615 54.2013C50.9267 52.1021 51.3451 50.0931 52.2265 48.1474C52.64 47.2343 53.1286 46.3549 53.6844 45.5207C54.2809 44.6253 54.9872 43.833 55.6617 42.9993C55.7352 42.9085 55.6392 42.7395 55.5321 42.8311C53.9427 44.191 52.7351 46.177 51.8703 48.0575C51.0044 49.9404 50.3408 52.0741 50.2864 54.161C50.2805 54.3901 50.5797 54.439 50.615 54.2013Z"
    fill="black"/>
  <path
    d="M47.2989 50.6911C47.4315 50.0722 47.5043 49.4467 47.672 48.834C47.849 48.1869 48.081 47.554 48.3699 46.9484C48.4898 46.6971 48.62 46.4556 48.7578 46.2208L48.5425 46.0395C48.5366 46.0346 48.531 46.0289 48.5253 46.0234C48.3731 46.2913 48.2315 46.5621 48.1016 46.8312C47.5484 47.9767 47.046 49.3304 47.0248 50.6169C47.0224 50.7715 47.2584 50.8801 47.2989 50.6911Z"
    fill="black"/>
  <path
    d="M50.5074 43.7473C50.5309 43.7472 50.554 43.7512 50.5758 43.7583C50.5831 43.7497 50.5902 43.741 50.5975 43.7322C50.664 43.6526 50.5784 43.5068 50.4838 43.5848C50.415 43.6413 50.3476 43.6998 50.281 43.7597C50.358 43.7071 50.4408 43.7104 50.5074 43.7473Z"
    fill="black"/>
  <path
    d="M50.0553 54.2527C49.4413 54.1194 48.8997 54.1188 48.3679 53.7226C47.8391 53.3285 47.546 52.751 47.3899 52.123C47.3664 52.0284 47.2215 52.0131 47.2222 52.1279C47.2259 52.8366 47.5354 53.5025 48.0421 53.9938C48.5295 54.4665 49.3901 54.9099 50.0847 54.7148C50.3225 54.648 50.2846 54.3026 50.0553 54.2527Z"
    fill="black"/>
  <path
    d="M49.5424 46.4716C49.0217 46.1118 48.4881 45.7708 47.9572 45.4262C48.4483 44.8305 48.9532 44.2391 49.3955 43.607C49.4523 43.5259 49.3415 43.3897 49.26 43.4696C48.6666 44.0508 48.1353 44.6993 47.5883 45.3235C47.5178 45.4041 47.5119 45.5475 47.6084 45.6153C48.1824 46.0182 48.7515 46.4286 49.336 46.8158C49.5618 46.9652 49.7429 46.6101 49.5424 46.4716Z"
    fill="black"/>
  <path
    d="M51.2734 44.6567C51.6087 44.2375 52.0137 43.8256 52.2749 43.3562C52.3609 43.2018 52.1776 42.9359 52.0192 43.0969C51.64 43.4824 51.3613 43.9895 51.0537 44.4337C50.7152 44.9225 50.3767 45.4112 50.0381 45.9C49.9833 45.9791 50.1013 46.1221 50.171 46.0349L51.2734 44.6567Z"
    fill="black"/>
  <path
    d="M17.4826 23.2595C16.4945 21.7054 15.2214 20.3802 13.9746 19.0294C13.3684 18.3725 12.7682 17.7092 12.1543 17.0594C11.5526 16.4226 10.9347 15.5707 10.1557 15.1634C9.46561 14.8026 8.90017 15.7875 9.20801 16.3568C9.63683 17.1495 10.4544 17.7675 11.1028 18.3883C11.7429 19.0012 12.3961 19.601 13.0431 20.2065C14.3555 21.4349 15.6399 22.7015 17.1644 23.6612C17.445 23.8378 17.6314 23.4935 17.4826 23.2595Z"
    fill="black"/>
  <path
    d="M20.2764 15.3514C19.8748 14.1059 19.3003 12.9046 18.7118 11.7366C18.137 10.5961 17.649 9.35143 16.9675 8.27437C16.5233 7.57231 15.6588 8.36362 15.9483 9.01502C16.2124 9.60984 16.6076 10.1521 16.9288 10.7179C17.252 11.2875 17.5693 11.8603 17.8944 12.4288C18.5153 13.5151 19.1643 14.6138 19.9481 15.5902C20.1237 15.809 20.3445 15.5628 20.2764 15.3514Z"
    fill="black"/>
  <path
    d="M13.8581 29.741C13.217 28.8917 11.9622 28.5538 11.0131 28.1644C9.88934 27.7033 8.75173 27.2782 7.6122 26.8583C6.5107 26.4524 5.40783 26.0513 4.30193 25.6575C3.1911 25.2621 2.03563 24.7088 0.867535 24.5237C0.434872 24.4552 0.0803347 24.8321 0.0155249 25.2274C-0.0598583 25.6876 0.151875 26.0849 0.55433 26.3088C1.55834 26.8671 2.7771 27.1404 3.86377 27.5121C4.97337 27.8917 6.08545 28.2625 7.19917 28.6298C8.31234 28.997 9.42771 29.3576 10.5538 29.684C11.4901 29.9553 12.7527 30.5379 13.7167 30.2218C13.9219 30.1547 13.99 29.9156 13.8581 29.741Z"
    fill="black"/>
  <path
    d="M13.5481 38.4465C12.5642 38.5271 11.5849 38.9378 10.6582 39.2577C9.67587 39.5967 8.69987 39.9462 7.72717 40.3118C6.77451 40.6699 5.82185 41.0282 4.86919 41.3863C3.89677 41.7518 2.83261 42.0492 1.92994 42.5665C1.17515 42.999 1.50826 44.5425 2.46819 44.3055C3.51477 44.0471 4.51644 43.5225 5.50507 43.0996C6.43919 42.6999 7.37331 42.3002 8.30743 41.9005C9.24224 41.5005 10.17 41.0902 11.0936 40.6649C12.0353 40.2311 13.0531 39.8231 13.8679 39.1715C14.174 38.9267 13.8981 38.4178 13.5481 38.4465Z"
    fill="black"/>
  <path
    d="M14.844 44.5842C14.9457 44.3934 14.7845 44.0815 14.5463 44.1967C12.9439 44.9717 11.6433 46.4334 10.3489 47.6228C9.65942 48.2562 8.98207 48.9014 8.30486 49.5478C7.63121 50.1909 6.90251 50.8087 6.28956 51.51C5.6821 52.2049 6.47205 53.5019 7.29247 52.8111C8.00566 52.2105 8.63591 51.4903 9.29102 50.8271C9.9523 50.1576 10.6124 49.4878 11.2609 48.806C12.5068 47.4959 13.985 46.1967 14.844 44.5842Z"
    fill="black"/>
  <path
    d="M15.9878 31.3679C16.1697 30.4199 16.5451 29.502 17.1402 28.7376C17.1965 28.6652 17.2831 28.6391 17.3602 28.6491C17.5065 28.5527 17.7135 28.5349 17.8988 28.5799C18.2736 26.4494 19.1324 24.3266 20.0524 22.387C20.9604 20.4725 22.0242 18.231 23.6038 16.7789C23.7154 16.6761 23.8706 16.6992 23.9571 16.7861C24.0333 16.7614 24.1153 16.7528 24.2001 16.7713C25.4851 17.0511 26.496 17.8629 27.5362 18.6207C28.6387 19.4239 29.7566 20.2032 30.9029 20.9426C33.1584 22.3974 35.5094 23.706 37.927 24.8711C40.387 26.0566 42.9241 27.0841 45.5125 27.9539C46.805 28.3883 48.1076 28.7848 49.4197 29.155C50.462 29.449 51.6771 29.6224 52.6896 30.0717C52.7334 30.0691 52.7795 30.0766 52.8266 30.0982C53.1779 30.2588 53.5008 30.4927 53.7193 30.8175C53.9149 31.1086 53.9762 31.3875 54.0488 31.7032C54.1309 31.68 54.2213 31.6761 54.3163 31.7026C55.8486 32.1292 57.357 32.7618 58.8453 33.3226C59.572 33.5964 60.3003 33.8658 61.0212 34.1547C61.4949 34.3445 62.1018 34.5005 62.5214 34.8301C62.5855 34.8467 62.6457 34.8764 62.6954 34.9253C64.7719 36.9653 64.2521 41.0169 61.9674 42.6768C62.0806 42.7513 61.968 42.9114 61.8743 42.9409C61.0416 43.2041 60.0353 43.0677 59.1708 43.0385C58.3197 43.0097 57.0665 42.7015 56.3957 43.3399C56.2472 43.4813 56.0807 43.493 55.9489 43.4309C54.4571 45.1231 53.1504 46.8347 52.2855 48.9674C51.8261 50.1003 51.4964 51.2837 51.2936 52.4891C51.1421 53.3892 51.2255 54.6077 50.3089 55.1244C48.416 56.1915 47.023 53.1014 46.7452 51.7401C46.3873 49.9865 46.7938 47.9937 48.0248 46.6709C47.8437 46.5323 47.6897 46.3323 47.5837 46.1715C47.4352 45.9463 47.3198 45.6732 47.2935 45.3964C47.2299 45.2889 47.2148 45.148 47.2745 45.0388C47.4196 44.7733 47.6617 44.585 47.8809 44.3797C47.9156 44.3472 47.9505 44.3138 47.9852 44.2806C43.4269 44.1856 38.8759 43.9294 34.3153 44.2781C29.0413 44.6815 23.7845 45.8001 19.015 48.1405C18.5126 48.3871 18.1864 47.9308 18.2904 47.5376C17.1149 45.9193 17.0104 43.5496 16.9411 41.6459C16.8929 40.3229 16.876 38.9987 16.8514 37.6752C16.8388 36.995 16.834 36.3144 16.8318 35.6341C16.8308 35.3343 16.8135 35.0302 16.8378 34.7339C16.8214 34.7311 16.8048 34.7288 16.7883 34.726C16.5923 34.6934 16.5272 34.561 16.5466 34.4153C16.513 34.4087 16.4792 34.4023 16.448 34.392C16.3004 34.4319 16.1332 34.392 16.0667 34.2385C15.7028 33.398 15.8191 32.2467 15.9878 31.3679ZM17.5991 35.4672C17.6333 36.0445 17.6671 36.622 17.6947 37.1997C17.7567 38.4938 17.8123 39.7889 17.8564 41.0838C17.8921 42.1302 17.9382 43.1803 18.115 44.2141C18.287 45.2205 18.6442 46.0559 19.0871 46.934C23.7511 44.7535 28.832 43.6731 33.9499 43.2759C39.4576 42.8485 45.0817 43.0466 50.5656 43.7537C50.5664 43.6685 50.5949 43.5787 50.6644 43.4922C51.6334 42.2834 52.5033 41.1108 53.058 39.6453C53.6167 38.1692 53.878 36.5162 53.7903 34.9385C53.7834 34.8143 53.9818 34.7525 54.0039 34.8919C54.495 37.9951 53.6954 41.566 51.4563 43.8831C51.6676 43.9763 51.5597 44.309 51.3106 44.3107C50.4734 44.316 49.6366 44.3088 48.8002 44.2953C48.6966 44.4796 48.557 44.6523 48.4348 44.8194C48.2898 45.0174 48.1494 45.2635 47.9573 45.4222C48.0353 45.5158 48.1162 45.6074 48.209 45.6901C48.4802 45.9317 48.8448 45.9714 48.9343 46.3621C48.9785 46.555 48.8065 46.7192 48.6442 46.791C47.8132 48.2688 47.4132 49.9353 47.7666 51.6249C47.9475 52.4892 48.3262 53.417 48.9699 54.0432C49.1629 54.2309 49.5412 54.5163 49.8469 54.4113C50.1923 54.2925 50.2061 53.8851 50.2523 53.5987C50.3324 53.1032 50.3798 52.6058 50.4755 52.1119C51.1535 48.6135 52.9542 44.8577 55.7182 42.5252C55.8413 42.4214 55.9886 42.4069 56.1153 42.4461C56.7382 41.9576 57.6598 42.0729 58.4322 42.1377C59.109 42.1946 59.7855 42.2602 60.4594 42.3438C60.7675 42.3822 61.0792 42.4072 61.3801 42.472C62.1969 41.487 62.8915 40.4131 63.0273 39.1079C63.1753 37.6838 62.6116 36.6027 61.9362 35.4123C61.9163 35.3773 61.9049 35.3428 61.8971 35.3089C61.5339 35.2344 61.1766 35.0925 60.823 34.9819C60.0331 34.7346 59.2497 34.4686 58.4651 34.2051C56.9573 33.6987 55.3877 33.2361 53.931 32.5971C53.6096 32.4559 53.6017 32.138 53.7547 31.9171C53.6825 31.6609 53.4309 31.386 53.2486 31.2053C53.0466 31.0052 52.8159 30.8432 52.5568 30.7247C52.5241 30.7097 52.4979 30.6909 52.4746 30.6707C51.3418 30.6489 50.1229 30.2558 49.0615 29.9872C47.7394 29.6527 46.4284 29.2626 45.1351 28.8308C42.6318 27.9949 40.182 27.0066 37.7939 25.8837C35.3633 24.7409 33.0059 23.4485 30.7288 22.0244C29.5725 21.3013 28.437 20.5442 27.3285 19.7496C26.2245 18.9582 25.1775 17.9711 23.8294 17.6321C23.7905 17.6224 23.7569 17.6092 23.7268 17.5938C23.3071 18.385 22.7827 19.1248 22.3419 19.9028C21.8122 20.838 21.3162 21.7911 20.8701 22.7691C19.9824 24.7159 19.3907 26.7271 18.7138 28.7459C19.8983 28.744 21.1726 28.9993 22.3169 29.244C22.4647 29.2755 22.3562 29.4604 22.2512 29.4686C20.9633 29.5691 19.5365 29.6654 18.2575 29.4551C18.0826 29.4263 18.0228 29.3163 18.0342 29.1914C18.0305 29.1896 18.0264 29.1888 18.0228 29.187C18.008 29.1866 17.9932 29.1877 17.9781 29.1846C17.9089 29.1706 17.8122 29.1565 17.7575 29.1635C17.7332 29.1678 17.7093 29.1734 17.6859 29.1807C17.7109 29.1753 17.7045 29.1801 17.6667 29.1951C17.5865 29.2294 17.5238 29.2547 17.4336 29.2504C17.4088 29.2492 17.3875 29.2437 17.3662 29.2383C17.0663 29.975 16.815 30.7174 16.6982 31.5134C16.5892 32.2561 16.692 32.9674 16.7103 33.6946C16.7463 33.702 16.7828 33.7146 16.8205 33.735C16.8899 33.7722 16.9563 33.8179 17.0238 33.8584C17.064 33.8826 17.103 33.9067 17.1397 33.9325C17.2047 33.9078 17.2755 33.9118 17.3164 33.9783C17.322 33.9875 17.3257 33.9971 17.3312 34.0064C17.9899 34.1305 18.6444 34.2773 19.2998 34.4178C19.9386 34.5547 20.5985 34.6512 21.1782 34.9647C21.2732 35.016 21.2047 35.1674 21.115 35.179C20.3999 35.2717 19.6837 35.1296 18.9742 35.0351C18.5045 34.9727 18.0345 34.9118 17.5653 34.8447C17.5827 35.048 17.5866 35.2562 17.5991 35.4672Z"
    fill="black"/>
</svg>
