<svg width="64" height="64" viewBox="0 0 64 64" fill="none" xmlns="http://www.w3.org/2000/svg">
  <path
    d="M15.3168 31.3178C15.3168 31.3178 29.5839 27.8851 34.6967 23.6281C39.8096 19.3711 42.7491 18.0363 43.2719 18.5983C43.7946 19.1603 47.3186 23.9126 48.743 30.2755C48.743 30.2755 50.5449 29.4968 50.7052 32.417C50.8654 35.3372 49.4642 35.4789 49.4642 35.4789C49.4642 35.4789 50.1486 46.1465 48.0663 48.289C48.0663 48.289 37.9176 44.5808 30.6332 44.8758C23.3488 45.1706 18.2418 44.8758 18.2418 44.8758L19.4095 46.3284L18.7607 47.5671C18.7607 47.5671 21.9906 53.7479 17.5851 55.7697C17.5851 55.7697 16.4491 56.8102 15.6905 51.4128C14.9318 46.0155 9.973 43.4096 9.40715 43.3798C8.84129 43.35 6.83121 44.1472 5.61849 43.4765C4.40577 42.8057 1.51979 38.2288 5.0985 36.1779C8.67721 34.1272 13.0947 33.1696 13.0947 33.1696L14.1611 31.6441L15.3168 31.3178Z"
    fill="white"/>
  <path
    d="M15.3168 31.3178C15.3168 31.3178 29.5839 27.8851 34.6967 23.6281C39.8096 19.3711 42.7491 18.0363 43.2719 18.5983C43.7946 19.1603 47.3186 23.9126 48.743 30.2755C48.743 30.2755 50.5449 29.4968 50.7052 32.417C50.8654 35.3372 49.4642 35.4789 49.4642 35.4789C49.4642 35.4789 50.1486 46.1465 48.0663 48.289C48.0663 48.289 37.9176 44.5808 30.6332 44.8758C23.3488 45.1706 18.2418 44.8758 18.2418 44.8758L19.4095 46.3284L18.7607 47.5671C18.7607 47.5671 21.9906 53.7479 17.5851 55.7697C17.5851 55.7697 16.4491 56.8102 15.6905 51.4128C14.9318 46.0155 9.973 43.4096 9.40715 43.3798C8.84129 43.35 6.83121 44.1472 5.61849 43.4765C4.40577 42.8057 1.51979 38.2288 5.0985 36.1779C8.67721 34.1272 13.0947 33.1696 13.0947 33.1696L14.1611 31.6441L15.3168 31.3178Z"
    fill="#80ED99"/>
  <path
    d="M45.3741 29.3009C45.3679 29.302 45.3625 29.3042 45.3566 29.3057C44.7721 26.8907 43.9664 24.5293 42.9484 22.2618C42.468 21.1921 41.9404 20.1436 41.3664 19.1212C41.0914 18.6314 40.8093 17.9853 40.2947 17.7034C40.0665 17.5784 39.8301 17.5489 39.5921 17.6631C39.3364 17.786 39.1206 18.059 39.2742 18.3434C39.3237 18.435 39.2043 18.5508 39.1369 18.4516C38.7627 17.9005 39.421 17.2221 39.9961 17.2678C40.9852 17.3465 41.5198 18.7067 41.9258 19.4421C43.056 21.489 43.9999 23.6369 44.75 25.8515C45.131 26.9762 45.4622 28.1182 45.7432 29.2727C45.6215 29.2694 45.5011 29.2772 45.3741 29.3009Z"
    fill="black"/>
  <path
    d="M12.8889 43.5148C17.3161 42.7471 20.2582 42.8335 24.7461 43.0127C29.2501 43.1924 33.7556 43.831 38.1239 44.9476C40.4128 45.5329 42.7337 46.1941 44.9222 47.1026C42.6077 40.2861 40.8141 33.3295 39.7981 26.1951C39.5088 24.1632 39.214 22.1052 39.1243 20.0536C39.1098 19.7198 39.5606 19.6456 39.6046 19.9946C39.8323 21.7934 39.9754 23.6016 40.2147 25.3998C40.4568 27.2178 40.7421 29.0309 41.0715 30.8351C41.7151 34.3605 42.5258 37.8577 43.513 41.3029C44.0411 43.1459 44.6068 44.9824 45.2441 46.7912C46.2189 44.9835 46.3299 42.7511 46.4331 40.7457C46.5399 38.6675 46.4811 36.5812 46.2621 34.512C46.2351 34.2566 46.2053 34.0015 46.1733 33.7466C46.269 33.7253 46.3637 33.7017 46.4571 33.6696C46.4913 33.671 46.5262 33.671 46.5615 33.6703C46.8212 35.6773 46.9315 37.7035 46.8854 39.7258C46.8551 41.0457 46.773 42.3724 46.59 43.6806C46.4057 44.9976 46.0696 46.2868 45.3443 47.4155C45.3435 47.4167 45.3425 47.4177 45.3417 47.419C45.3228 47.4733 45.278 47.5155 45.2192 47.4968C45.2181 47.4964 45.217 47.4961 45.2161 47.4957C45.1678 47.4997 45.118 47.4829 45.078 47.4515C42.9945 46.7879 40.9328 46.0894 38.8102 45.5519C36.6422 45.0031 34.4487 44.5527 32.2375 44.217C27.8147 43.5453 23.3215 43.3163 18.8534 43.5432C16.3376 43.6711 15.4039 43.6072 12.9167 44.0041C12.6261 44.0505 12.6164 43.5621 12.8889 43.5148Z"
    fill="black"/>
  <path
    d="M11.6033 30.1425C19.5514 28.7732 27.1585 25.706 33.8738 21.2459C35.7436 20.0039 37.4654 18.5866 39.2683 17.256C39.3788 17.1744 39.4491 17.3447 39.3688 17.4236C37.9181 18.8504 36.2197 20.067 34.5493 21.2212C32.8917 22.3666 31.1692 23.4186 29.3988 24.3805C25.8461 26.3111 22.0931 27.8683 18.2159 29.0163C16.0515 29.6571 13.8508 30.1702 11.6263 30.5538C11.3839 30.5957 11.3735 30.182 11.6033 30.1425Z"
    fill="black"/>
  <path
    d="M0.834873 40.733C0.543639 40.0413 0.379966 39.2966 0.38285 38.5447C0.388068 37.2181 0.893781 35.6503 1.94612 34.7752C2.0373 34.6994 2.09497 34.8439 2.04993 34.9142C1.6877 35.4796 1.33386 36.0084 1.11979 36.6525C0.915201 37.2685 0.805629 37.91 0.826362 38.56C0.848057 39.2427 1.00541 39.9217 1.28621 40.5444C1.5699 41.1737 2.00764 41.6429 2.40598 42.1924C2.41366 42.203 2.41984 42.2144 2.42479 42.2263C3.96472 42.2208 5.51783 42.3356 7.05584 42.407C7.83672 42.4434 8.61788 42.476 9.39862 42.5159C10.0485 42.5492 10.7445 42.5358 11.3941 42.637C11.3112 42.44 11.2332 42.2424 11.1555 42.0528C10.9383 41.5228 10.7416 40.9849 10.5737 40.4372C10.2261 39.3036 9.99496 38.1349 9.87811 36.955C9.76318 35.7946 9.76634 34.6274 9.88937 33.4678C9.93523 33.0354 10.002 32.579 10.131 32.1492C9.00316 32.6317 7.81763 32.9991 6.66148 33.4076C6.08945 33.6098 5.51756 33.812 4.94456 34.011C4.35385 34.2161 2.7049 35.0188 2.09881 35.1725C1.85989 35.233 1.79014 34.8891 1.99693 34.7982C2.57006 34.5463 4.2462 33.8242 4.83869 33.622C5.41224 33.4262 5.98702 33.2335 6.56166 33.0407C7.7292 32.649 8.89497 32.2051 10.0865 31.892C10.1397 31.878 10.1799 31.8953 10.205 31.9261C10.3922 31.4113 10.6849 30.9505 11.1615 30.6385C11.2416 30.5862 11.3135 30.6982 11.255 30.7636C10.4754 31.6325 10.294 32.793 10.2237 33.916C10.1559 34.9971 10.1822 36.0846 10.3095 37.1604C10.4394 38.2573 10.6777 39.3424 11.012 40.3949C11.1794 40.9218 11.3704 41.4413 11.5908 41.9483C11.8101 42.4526 12.0998 42.9309 12.3012 43.441C12.3927 43.6726 12.0731 43.8607 11.9254 43.6515C11.766 43.4259 11.6333 43.1717 11.514 42.9099C10.7823 42.9892 9.99605 42.9122 9.2635 42.8935C8.48304 42.8736 7.70243 42.8515 6.92196 42.8295C5.39617 42.7864 3.85308 42.7863 2.33142 42.6656C2.27484 42.6611 2.2353 42.6315 2.21113 42.5898C2.17777 42.5905 2.14344 42.581 2.10966 42.5563C1.52582 42.1297 1.11045 41.3878 0.834873 40.733Z"
    fill="black"/>
  <path
    d="M41.4557 34.779C41.6631 34.7301 41.8701 34.6808 42.0769 34.631C42.9443 34.4218 43.8131 34.2183 44.6817 34.0144C45.5389 33.8131 46.4133 33.5628 47.2911 33.4802C47.3043 33.4789 47.3161 33.4803 47.3272 33.4829C47.1535 32.8231 46.9785 32.1638 46.8009 31.505C46.63 30.8705 46.4046 30.2266 46.3168 29.5745C46.3078 29.5089 46.3291 29.4555 46.3648 29.4183C44.5323 29.4957 42.6959 29.5152 40.8623 29.5597C40.6934 29.5638 40.5245 29.5681 40.3556 29.5722C40.3604 29.5431 40.3611 29.5127 40.3535 29.4813L40.2852 29.1973C40.5005 29.1902 40.7156 29.1827 40.9309 29.1754C42.7338 29.1144 44.5381 29.0287 46.3418 29C46.5363 28.997 46.586 29.2465 46.4855 29.3614C46.5561 29.3561 46.6292 29.3911 46.6635 29.4803C46.9024 30.1028 47.0087 30.7962 47.1634 31.4444C47.2462 31.7914 47.3314 32.1378 47.4155 32.4845C47.4304 31.4057 47.2094 30.3227 46.7387 29.3485C46.6923 29.2524 46.8248 29.127 46.8807 29.2366C47.5622 30.574 47.8405 32.0153 47.6465 33.5097C47.6306 33.6327 47.4886 33.6882 47.4025 33.6311C47.3942 33.669 47.3716 33.7036 47.3334 33.7196C46.5514 34.0478 45.7009 34.2404 44.8831 34.4621C44.0168 34.6967 43.1508 34.933 42.283 35.1625C42.0668 35.2197 41.8505 35.2777 41.6344 35.3362C41.5803 35.1489 41.5204 34.9633 41.4557 34.779Z"
    fill="black"/>
  <path
    d="M39.3786 20.5442C39.196 20.1254 39.1559 19.6443 39.1915 19.1921C39.2199 18.831 39.2739 18.344 39.5293 18.0611C39.7533 17.813 40.0911 17.7717 40.3384 18.0103C40.6535 18.3146 40.9478 18.8313 41.1106 19.234C41.1365 19.2977 41.0659 19.379 41.0005 19.3462C40.9928 19.3424 40.9853 19.3385 40.9776 19.3347C40.9607 19.3263 40.95 19.3127 40.9442 19.2973C40.7648 19.1293 40.6216 18.9186 40.4727 18.7241C40.3532 18.5679 40.0573 18.0712 39.7746 18.332C39.6825 18.4172 39.6582 18.6491 39.6394 18.7639C39.5453 19.3393 39.6365 19.8824 39.7255 20.4502C39.7603 20.6729 39.4657 20.7438 39.3786 20.5442Z"
    fill="black"/>
  <path
    d="M44.9856 46.1193C45.4438 45.8471 45.3946 45.3746 45.4198 44.9061C45.4423 44.4865 45.4671 44.0669 45.4925 43.6476C45.5404 42.8564 45.601 42.0659 45.6561 41.2751C45.665 41.1466 45.8641 41.1472 45.8639 41.2812C45.8627 42.4127 45.862 43.5439 45.8462 44.6753C45.8379 45.2755 45.9239 46.4907 45.0632 46.5614C44.7948 46.5835 44.806 46.226 44.9856 46.1193Z"
    fill="black"/>
  <path
    d="M39.1941 29.0159C39.2651 28.9561 39.3278 29.0805 39.2647 29.1337C39.1936 29.1935 39.1308 29.0691 39.1941 29.0159Z"
    fill="black"/>
  <path
    d="M41.5015 39.9484C40.7961 37.3651 40.2223 34.7488 39.5999 32.145C39.5802 32.063 39.6974 32.0004 39.7221 32.0927C40.4144 34.6705 41.155 37.2363 41.7652 39.8354C41.8067 40.012 41.5558 40.1476 41.5015 39.9484Z"
    fill="black"/>
  <path
    d="M44.6631 47.6033C43.3518 45.7242 42.5452 43.4185 41.999 41.212C41.9746 41.1131 42.1113 41.038 42.147 41.1485C42.8561 43.3441 43.94 45.2883 45.0662 47.2856C45.2174 47.5537 44.8637 47.8907 44.6631 47.6033Z"
    fill="black"/>
  <path
    d="M38.8059 26.6454C38.3847 24.9792 38.3051 23.1595 38.2662 21.4483C38.2348 20.0613 37.9533 18.071 39.3599 17.2445C39.6529 17.0723 39.7883 17.6106 39.5173 17.7653C38.7291 18.215 38.6682 19.1949 38.6223 20.001C38.5815 20.7175 38.5811 21.4363 38.5983 22.1536C38.634 23.6496 38.8553 25.1135 38.9709 26.6008C38.9785 26.6976 38.8336 26.755 38.8059 26.6454Z"
    fill="black"/>
  <path
    d="M13.3811 54.2013C13.0694 52.1021 12.651 50.0931 11.7696 48.1474C11.356 47.2343 10.8675 46.3549 10.3117 45.5207C9.7152 44.6253 9.00887 43.833 8.3344 42.9993C8.26094 42.9085 8.35692 42.7395 8.46402 42.8311C10.0534 44.191 11.261 46.177 12.1258 48.0575C12.9917 49.9404 13.6553 52.0741 13.7097 54.161C13.7156 54.3901 13.4164 54.439 13.3811 54.2013Z"
    fill="black"/>
  <path
    d="M16.7011 50.6911C16.5685 50.0722 16.4957 49.4467 16.328 48.834C16.151 48.1869 15.919 47.554 15.6301 46.9484C15.5102 46.6971 15.38 46.4556 15.2422 46.2208L15.4575 46.0395C15.4634 46.0346 15.469 46.0289 15.4747 46.0234C15.6269 46.2913 15.7685 46.5621 15.8984 46.8312C16.4516 47.9767 16.954 49.3304 16.9752 50.6169C16.9776 50.7715 16.7416 50.8801 16.7011 50.6911Z"
    fill="black"/>
  <path
    d="M13.4926 43.7473C13.4691 43.7472 13.446 43.7512 13.4242 43.7583C13.4169 43.7497 13.4098 43.741 13.4025 43.7322C13.336 43.6526 13.4216 43.5068 13.5162 43.5848C13.585 43.6413 13.6524 43.6998 13.719 43.7597C13.642 43.7071 13.5592 43.7104 13.4926 43.7473Z"
    fill="black"/>
  <path
    d="M13.9447 54.2527C14.5587 54.1194 15.1003 54.1188 15.6321 53.7226C16.1609 53.3285 16.454 52.751 16.6101 52.123C16.6336 52.0284 16.7785 52.0131 16.7778 52.1279C16.7741 52.8366 16.4646 53.5025 15.9579 53.9938C15.4705 54.4665 14.6099 54.9099 13.9153 54.7148C13.6775 54.648 13.7154 54.3026 13.9447 54.2527Z"
    fill="black"/>
  <path
    d="M14.4576 46.4716C14.9783 46.1118 15.5119 45.7708 16.0428 45.4262C15.5517 44.8305 15.0468 44.2391 14.6045 43.607C14.5477 43.5259 14.6585 43.3897 14.74 43.4696C15.3334 44.0508 15.8647 44.6993 16.4117 45.3235C16.4822 45.4041 16.4881 45.5475 16.3916 45.6153C15.8176 46.0182 15.2485 46.4286 14.664 46.8158C14.4382 46.9652 14.2571 46.6101 14.4576 46.4716Z"
    fill="black"/>
  <path
    d="M12.7266 44.6567C12.3913 44.2375 11.9863 43.8256 11.7251 43.3562C11.6391 43.2018 11.8224 42.9359 11.9808 43.0969C12.36 43.4824 12.6387 43.9895 12.9463 44.4337C13.2848 44.9225 13.6233 45.4112 13.9619 45.9C14.0167 45.9791 13.8987 46.1221 13.829 46.0349L12.7266 44.6567Z"
    fill="black"/>
  <path
    d="M46.5174 23.2595C47.5055 21.7054 48.7786 20.3802 50.0254 19.0294C50.6316 18.3725 51.2318 17.7092 51.8457 17.0594C52.4474 16.4226 53.0653 15.5707 53.8443 15.1634C54.5344 14.8026 55.0998 15.7875 54.792 16.3568C54.3632 17.1495 53.5456 17.7675 52.8972 18.3883C52.2571 19.0012 51.6039 19.601 50.9569 20.2065C49.6445 21.4349 48.3601 22.7015 46.8356 23.6612C46.555 23.8378 46.3686 23.4935 46.5174 23.2595Z"
    fill="black"/>
  <path
    d="M43.7236 15.3514C44.1252 14.1059 44.6997 12.9046 45.2882 11.7366C45.863 10.5961 46.351 9.35143 47.0325 8.27437C47.4767 7.57231 48.3412 8.36362 48.0517 9.01502C47.7876 9.60984 47.3924 10.1521 47.0712 10.7179C46.748 11.2875 46.4307 11.8603 46.1056 12.4288C45.4847 13.5151 44.8357 14.6138 44.0519 15.5902C43.8763 15.809 43.6555 15.5628 43.7236 15.3514Z"
    fill="black"/>
  <path
    d="M50.1419 29.741C50.783 28.8917 52.0378 28.5538 52.9869 28.1644C54.1107 27.7033 55.2483 27.2782 56.3878 26.8583C57.4893 26.4524 58.5922 26.0513 59.6981 25.6575C60.8089 25.2621 61.9644 24.7088 63.1325 24.5237C63.5651 24.4552 63.9197 24.8321 63.9845 25.2274C64.0599 25.6876 63.8481 26.0849 63.4457 26.3088C62.4417 26.8671 61.2229 27.1404 60.1362 27.5121C59.0266 27.8917 57.9146 28.2625 56.8008 28.6298C55.6877 28.997 54.5723 29.3576 53.4462 29.684C52.5099 29.9553 51.2473 30.5379 50.2833 30.2218C50.0781 30.1547 50.01 29.9156 50.1419 29.741Z"
    fill="black"/>
  <path
    d="M50.4519 38.4465C51.4358 38.5271 52.4151 38.9378 53.3418 39.2577C54.3241 39.5967 55.3001 39.9462 56.2728 40.3118C57.2255 40.6699 58.1781 41.0282 59.1308 41.3863C60.1032 41.7518 61.1674 42.0492 62.0701 42.5665C62.8249 42.999 62.4917 44.5425 61.5318 44.3055C60.4852 44.0471 59.4836 43.5225 58.4949 43.0996C57.5608 42.6999 56.6267 42.3002 55.6926 41.9005C54.7578 41.5005 53.83 41.0902 52.9064 40.6649C51.9647 40.2311 50.9469 39.8231 50.1321 39.1715C49.826 38.9267 50.1019 38.4178 50.4519 38.4465Z"
    fill="black"/>
  <path
    d="M49.156 44.592C49.0543 44.4012 49.2155 44.0894 49.4537 44.2046C51.0561 44.9795 52.3567 46.4412 53.6511 47.6306C54.3406 48.264 55.0179 48.9092 55.6951 49.5556C56.3688 50.1987 57.0975 50.8166 57.7104 51.5178C58.3179 52.2127 57.528 53.5098 56.7075 52.8189C55.9943 52.2184 55.3641 51.4982 54.709 50.835C54.0477 50.1654 53.3876 49.4956 52.7391 48.8138C51.4932 47.5037 50.015 46.2045 49.156 44.592Z"
    fill="black"/>
  <path
    d="M48.0122 31.3679C47.8303 30.4199 47.4549 29.502 46.8598 28.7376C46.8035 28.6652 46.7169 28.6391 46.6398 28.6491C46.4935 28.5527 46.2865 28.5349 46.1012 28.5799C45.7264 26.4494 44.8676 24.3266 43.9476 22.387C43.0396 20.4725 41.9758 18.231 40.3962 16.7789C40.2846 16.6761 40.1294 16.6992 40.0429 16.7861C39.9667 16.7614 39.8847 16.7528 39.7999 16.7713C38.5149 17.0511 37.504 17.8629 36.4638 18.6207C35.3613 19.4239 34.2434 20.2032 33.0971 20.9426C30.8416 22.3974 28.4906 23.706 26.073 24.8711C23.613 26.0566 21.0759 27.0841 18.4875 27.9539C17.195 28.3883 15.8924 28.7848 14.5803 29.155C13.538 29.449 12.3229 29.6224 11.3104 30.0717C11.2666 30.0691 11.2205 30.0766 11.1734 30.0982C10.8221 30.2588 10.4992 30.4927 10.2807 30.8175C10.0851 31.1086 10.0238 31.3875 9.95117 31.7032C9.86906 31.68 9.77871 31.6761 9.68369 31.7026C8.15145 32.1292 6.64297 32.7618 5.15466 33.3226C4.42802 33.5964 3.69973 33.8658 2.97885 34.1547C2.50513 34.3445 1.89822 34.5005 1.4786 34.8301C1.41448 34.8467 1.35434 34.8764 1.30463 34.9253C-0.771907 36.9653 -0.252052 41.0169 2.03265 42.6768C1.91937 42.7513 2.03196 42.9114 2.12574 42.9409C2.95839 43.2041 3.96473 43.0677 4.82924 43.0385C5.68028 43.0097 6.93351 42.7015 7.60427 43.3399C7.75284 43.4813 7.91926 43.493 8.05108 43.4309C9.54295 45.1231 10.8496 46.8347 11.7145 48.9674C12.1739 50.1003 12.5036 51.2837 12.7064 52.4891C12.8579 53.3892 12.7745 54.6077 13.6911 55.1244C15.584 56.1915 16.977 53.1014 17.2548 51.7401C17.6127 49.9865 17.2062 47.9937 15.9752 46.6709C16.1563 46.5323 16.3103 46.3323 16.4163 46.1715C16.5648 45.9463 16.6802 45.6732 16.7065 45.3964C16.7701 45.2889 16.7852 45.148 16.7255 45.0388C16.5804 44.7733 16.3383 44.585 16.1191 44.3797C16.0844 44.3472 16.0495 44.3138 16.0148 44.2806C20.5731 44.1856 25.1241 43.9294 29.6847 44.2781C34.9587 44.6815 40.2155 45.8001 44.985 48.1405C45.4874 48.3871 45.8136 47.9308 45.7096 47.5376C46.8851 45.9193 46.9896 43.5496 47.0589 41.6459C47.1071 40.3229 47.124 38.9987 47.1486 37.6752C47.1612 36.995 47.166 36.3144 47.1682 35.6341C47.1692 35.3343 47.1865 35.0302 47.1622 34.7339C47.1786 34.7311 47.1952 34.7288 47.2117 34.726C47.4077 34.6934 47.4728 34.561 47.4534 34.4153C47.487 34.4087 47.5208 34.4023 47.552 34.392C47.6996 34.4319 47.8668 34.392 47.9333 34.2385C48.2972 33.398 48.1809 32.2467 48.0122 31.3679ZM46.4009 35.4672C46.3667 36.0445 46.3329 36.622 46.3053 37.1997C46.2433 38.4938 46.1877 39.7889 46.1436 41.0838C46.1079 42.1302 46.0618 43.1803 45.885 44.2141C45.713 45.2205 45.3558 46.0559 44.9129 46.934C40.2489 44.7535 35.168 43.6731 30.0501 43.2759C24.5424 42.8485 18.9183 43.0466 13.4344 43.7537C13.4336 43.6685 13.4051 43.5787 13.3356 43.4922C12.3666 42.2834 11.4967 41.1108 10.942 39.6453C10.3833 38.1692 10.122 36.5162 10.2097 34.9385C10.2166 34.8143 10.0182 34.7525 9.99607 34.8919C9.50505 37.9951 10.3046 41.566 12.5437 43.8831C12.3324 43.9763 12.4403 44.309 12.6894 44.3107C13.5266 44.316 14.3634 44.3088 15.1998 44.2953C15.3034 44.4796 15.443 44.6523 15.5652 44.8194C15.7102 45.0174 15.8506 45.2635 16.0427 45.4222C15.9647 45.5158 15.8838 45.6074 15.791 45.6901C15.5198 45.9317 15.1552 45.9714 15.0657 46.3621C15.0215 46.555 15.1935 46.7192 15.3558 46.791C16.1868 48.2688 16.5868 49.9353 16.2334 51.6249C16.0525 52.4892 15.6738 53.417 15.0301 54.0432C14.8371 54.2309 14.4588 54.5163 14.1531 54.4113C13.8077 54.2925 13.7939 53.8851 13.7477 53.5987C13.6676 53.1032 13.6202 52.6058 13.5245 52.1119C12.8465 48.6135 11.0458 44.8577 8.28176 42.5252C8.15873 42.4214 8.01139 42.4069 7.88466 42.4461C7.26182 41.9576 6.34019 42.0729 5.56782 42.1377C4.89102 42.1946 4.2145 42.2602 3.54058 42.3438C3.23246 42.3822 2.92077 42.4072 2.61992 42.472C1.80306 41.487 1.10855 40.4131 0.972749 39.1079C0.824729 37.6838 1.38839 36.6027 2.06382 35.4123C2.08373 35.3773 2.09512 35.3428 2.10295 35.3089C2.46613 35.2344 2.82341 35.0925 3.17699 34.9819C3.96693 34.7346 4.75028 34.4686 5.53487 34.2051C7.04267 33.6987 8.61226 33.2361 10.069 32.5971C10.3904 32.4559 10.3983 32.138 10.2453 31.9171C10.3175 31.6609 10.5691 31.386 10.7514 31.2053C10.9534 31.0052 11.1841 30.8432 11.4432 30.7247C11.4759 30.7097 11.5021 30.6909 11.5254 30.6707C12.6582 30.6489 13.8771 30.2558 14.9385 29.9872C16.2606 29.6527 17.5716 29.2626 18.8649 28.8308C21.3682 27.9949 23.818 27.0066 26.2061 25.8837C28.6367 24.7409 30.9941 23.4485 33.2712 22.0244C34.4275 21.3013 35.563 20.5442 36.6715 19.7496C37.7755 18.9582 38.8225 17.9711 40.1706 17.6321C40.2095 17.6224 40.2431 17.6092 40.2732 17.5938C40.6929 18.385 41.2173 19.1248 41.6581 19.9028C42.1878 20.838 42.6838 21.7911 43.1299 22.7691C44.0176 24.7159 44.6093 26.7271 45.2862 28.7459C44.1017 28.744 42.8274 28.9993 41.6831 29.244C41.5353 29.2755 41.6438 29.4604 41.7488 29.4686C43.0367 29.5691 44.4635 29.6654 45.7425 29.4551C45.9174 29.4263 45.9772 29.3163 45.9658 29.1914C45.9695 29.1896 45.9736 29.1888 45.9772 29.187C45.992 29.1866 46.0068 29.1877 46.0219 29.1846C46.0911 29.1706 46.1878 29.1565 46.2425 29.1635C46.2668 29.1678 46.2907 29.1734 46.3141 29.1807C46.2891 29.1753 46.2955 29.1801 46.3333 29.1951C46.4135 29.2294 46.4762 29.2547 46.5664 29.2504C46.5912 29.2492 46.6125 29.2437 46.6338 29.2383C46.9337 29.975 47.185 30.7174 47.3018 31.5134C47.4108 32.2561 47.308 32.9674 47.2897 33.6946C47.2537 33.702 47.2172 33.7146 47.1795 33.735C47.1101 33.7722 47.0437 33.8179 46.9762 33.8584C46.936 33.8826 46.897 33.9067 46.8603 33.9325C46.7953 33.9078 46.7245 33.9118 46.6836 33.9783C46.678 33.9875 46.6743 33.9971 46.6688 34.0064C46.0101 34.1305 45.3556 34.2773 44.7002 34.4178C44.0614 34.5547 43.4015 34.6512 42.8218 34.9647C42.7268 35.016 42.7953 35.1674 42.885 35.179C43.6001 35.2717 44.3163 35.1296 45.0258 35.0351C45.4955 34.9727 45.9655 34.9118 46.4347 34.8447C46.4173 35.048 46.4134 35.2562 46.4009 35.4672Z"
    fill="black"/>
</svg>
