<svg width="20" height="20" viewBox="0 0 20 20" fill="none" xmlns="http://www.w3.org/2000/svg">
  <path
    d="M15.2276 10.5784C15.2085 8.30233 17.0905 7.19606 17.1731 7.1452C16.105 5.59388 14.452 5.37771 13.8734 5.35864C12.4874 5.21241 11.1395 6.19152 10.4338 6.19152C9.71535 6.19152 8.6218 5.37771 7.45195 5.39679C5.94514 5.42222 4.52734 6.29324 3.75804 7.65382C2.16222 10.4195 3.35114 14.4885 4.88338 16.7265C5.65268 17.82 6.54278 19.0471 7.71898 19.0026C8.8634 18.9581 9.29573 18.2714 10.6754 18.2714C12.0487 18.2714 12.4492 19.0026 13.6445 18.9772C14.8779 18.9581 15.6472 17.8773 16.3911 16.771C17.2748 15.5185 17.6309 14.2787 17.6436 14.2151C17.6118 14.2024 15.253 13.2996 15.2276 10.5784Z"
    fill="currentColor"/>
  <path
    d="M12.9698 3.88647C13.5865 3.11717 14.0061 2.06812 13.8917 1C13.0016 1.03815 11.8826 1.61671 11.2405 2.3733C10.6746 3.04087 10.166 4.12806 10.2931 5.15168C11.2977 5.22797 12.3276 4.64305 12.9698 3.88647Z"
    fill="currentColor"/>
</svg>
