<svg width="15" height="14" viewBox="0 0 15 14" fill="none" xmlns="http://www.w3.org/2000/svg">
  <path
    d="M13.5147 5.42625C13.2791 5.18 13.0353 4.92625 12.9434 4.70312C12.8584 4.49875 12.8534 4.16 12.8484 3.83187C12.8391 3.22187 12.8291 2.53062 12.3484 2.05C11.8678 1.56937 11.1766 1.55937 10.5666 1.55C10.2384 1.545 9.89969 1.54 9.69531 1.455C9.47281 1.36312 9.21844 1.11937 8.97219 0.88375C8.54094 0.469375 8.05094 0 7.39844 0C6.74594 0 6.25656 0.469375 5.82469 0.88375C5.57844 1.11937 5.32469 1.36312 5.10156 1.455C4.89844 1.54 4.55844 1.545 4.23031 1.55C3.62031 1.55937 2.92906 1.56937 2.44844 2.05C1.96781 2.53062 1.96094 3.22187 1.94844 3.83187C1.94344 4.16 1.93844 4.49875 1.85344 4.70312C1.76156 4.92562 1.51781 5.18 1.28219 5.42625C0.867812 5.8575 0.398438 6.3475 0.398438 7C0.398438 7.6525 0.867812 8.14187 1.28219 8.57375C1.51781 8.82 1.76156 9.07375 1.85344 9.29688C1.93844 9.50125 1.94344 9.84 1.94844 10.1681C1.95781 10.7781 1.96781 11.4694 2.44844 11.95C2.92906 12.4306 3.62031 12.4406 4.23031 12.45C4.55844 12.455 4.89719 12.46 5.10156 12.545C5.32406 12.6369 5.57844 12.8806 5.82469 13.1163C6.25594 13.5306 6.74594 14 7.39844 14C8.05094 14 8.54031 13.5306 8.97219 13.1163C9.21844 12.8806 9.47219 12.6369 9.69531 12.545C9.89969 12.46 10.2384 12.455 10.5666 12.45C11.1766 12.4406 11.8678 12.4306 12.3484 11.95C12.8291 11.4694 12.8391 10.7781 12.8484 10.1681C12.8534 9.84 12.8584 9.50125 12.9434 9.29688C13.0353 9.07438 13.2791 8.82 13.5147 8.57375C13.9291 8.1425 14.3984 7.6525 14.3984 7C14.3984 6.3475 13.9291 5.85812 13.5147 5.42625ZM10.2522 5.85375L6.75219 9.35375C6.70575 9.40024 6.65061 9.43712 6.58991 9.46228C6.52921 9.48744 6.46415 9.50039 6.39844 9.50039C6.33273 9.50039 6.26767 9.48744 6.20697 9.46228C6.14627 9.43712 6.09112 9.40024 6.04469 9.35375L4.54469 7.85375C4.45087 7.75993 4.39816 7.63268 4.39816 7.5C4.39816 7.36732 4.45087 7.24007 4.54469 7.14625C4.63851 7.05243 4.76576 6.99972 4.89844 6.99972C5.03112 6.99972 5.15837 7.05243 5.25219 7.14625L6.39844 8.29313L9.54469 5.14625C9.59114 5.09979 9.64629 5.06294 9.70699 5.0378C9.76769 5.01266 9.83274 4.99972 9.89844 4.99972C9.96414 4.99972 10.0292 5.01266 10.0899 5.0378C10.1506 5.06294 10.2057 5.09979 10.2522 5.14625C10.2986 5.1927 10.3355 5.24786 10.3606 5.30855C10.3858 5.36925 10.3987 5.4343 10.3987 5.5C10.3987 5.5657 10.3858 5.63075 10.3606 5.69145C10.3355 5.75214 10.2986 5.8073 10.2522 5.85375Z"
    fill="currentColor"/>
</svg>
