<svg width="52" height="48" viewBox="0 0 52 48" fill="none" xmlns="http://www.w3.org/2000/svg">
  <path
    d="M39.8897 11.2852C45.4866 21.5 41.7468 34.3208 31.537 39.9204C21.3271 45.52 8.51257 41.7783 2.91574 31.5636C-2.68109 21.3488 1.05865 8.52801 11.2685 2.92841C15.6215 0.540992 20.4502 -0.148221 24.989 0.638625C28.5433 1.25412 31.9215 2.77575 34.7559 5.09614C36.7925 6.75959 38.5488 8.83777 39.8897 11.2852Z"
    fill="white"/>
  <path
    d="M42.3704 23.5217C41.702 30.1969 37.8644 36.4411 31.5339 39.913C21.3215 45.514 8.50729 41.7795 2.90897 31.5618C-0.936555 24.5433 -0.376947 16.2929 3.66415 10C1.91146 15.174 2.22103 20.9776 5.01583 26.0783C10.3979 35.9011 22.9309 39.3707 33.0226 33.836C37.3961 31.4373 40.5898 27.7469 42.3704 23.5217Z"
    fill="#E9EDF4"/>
  <path
    d="M34.7364 5.31039C34.6697 6.37683 34.7712 7.49702 35.3224 8.41124C35.7824 9.17195 36.5096 9.72625 37.1349 10.3604C37.7619 10.9937 38.3211 11.7958 38.2853 12.6872C38.2583 13.363 37.8898 14.0536 38.1288 14.6866C38.4341 15.5058 39.6606 15.9707 39.4692 16.8228C39.3277 17.4513 38.5091 17.6177 37.8675 17.5648C36.8911 17.4823 35.9343 17.1953 35.0758 16.7249C34.9108 16.6334 34.7285 16.5322 34.5441 16.5759C34.356 16.6215 34.2361 16.8047 34.1593 16.9832C33.6398 18.1758 34.1932 19.5703 33.9664 20.8514C33.9319 21.0547 33.872 21.2601 33.7369 21.4155C33.3061 21.9177 32.4732 21.5817 31.9864 21.1303C31.091 20.3041 30.498 19.2044 29.704 18.2796C28.9101 17.3547 27.7699 16.5671 26.5613 16.7246C26.1864 16.7745 25.8274 16.914 25.4555 16.991C24.3725 17.2209 23.1872 16.9011 22.3644 16.1597C22.2767 16.0784 22.1861 15.9916 22.073 15.9555C21.7489 15.8531 21.4751 16.1924 21.2654 16.4606C20.6284 17.277 19.5336 17.7865 18.5306 17.5246C18.173 17.431 17.8235 17.2299 17.6394 16.907C17.3283 16.3567 17.5701 15.623 17.2756 15.0637C16.9467 14.437 16.1113 14.3014 15.4043 14.3394C14.6964 14.3756 13.9306 14.4939 13.3257 14.1239C12.9341 13.8811 12.6822 13.4734 12.367 13.1386C12.0519 12.8036 11.5894 12.5233 11.1503 12.6611C10.8662 12.7499 10.6648 12.9895 10.4528 13.1969C9.75966 13.8717 8.80541 14.2705 7.83851 14.2883C7.6799 14.2915 7.5113 14.281 7.3801 14.19C7.12728 14.0125 7.15257 13.6131 7.31457 13.3495C7.60224 12.8828 8.16101 12.6792 8.64244 12.4176C9.12377 12.1559 9.60595 11.6904 9.51321 11.1498C9.47677 10.9303 9.34631 10.736 9.27896 10.5214C9.06364 9.84439 9.64749 9.04045 10.3604 9.03503C11.0685 9.02983 11.7615 9.66995 12.4111 9.38313C13.0171 9.11309 13.0412 8.2879 13.203 7.64361C13.4349 6.72132 14.1349 5.95425 14.9859 5.52827C15.8368 5.10229 16.8218 4.9955 17.7673 5.10439C18.3315 5.16855 18.9107 5.30826 19.4615 5.16899C20.2356 4.97427 20.767 4.29258 21.324 3.71883C22.097 2.92359 23.0212 2.27304 24.0326 1.81657C24.2995 1.69653 24.5863 1.57756 24.7605 1.34077C24.8929 1.16283 24.9415 0.937326 24.9746 0.718067C24.9792 0.69151 24.982 0.66612 24.9849 0.640625C28.5392 1.25612 31.9174 2.77775 34.7519 5.09814C34.7453 5.1691 34.7414 5.2407 34.7364 5.31039Z"
    fill="#80ED99"/>
  <path
    d="M38.139 14.6809C38.4411 15.5003 39.6671 15.9597 39.4777 16.8181C39.3286 17.4448 38.5169 17.607 37.874 17.5614C36.8966 17.4791 35.9398 17.1865 35.0753 16.7175C34.9118 16.629 34.7316 16.5287 34.5438 16.5688C34.3604 16.617 34.2399 16.7984 34.1605 16.9781C33.6425 18.174 34.1969 19.5676 33.9735 20.8429C33.9405 21.0496 33.8743 21.2536 33.7404 21.4108C33.3109 21.9084 32.4807 21.5778 31.9904 21.1236C31.0959 20.2937 30.5037 19.1933 29.7044 18.2694C28.917 17.3494 27.7734 16.5618 26.5709 16.7183C26.1905 16.7697 25.8337 16.9026 25.4586 16.9825C24.3779 17.2084 23.1906 16.8954 22.3648 16.1537C22.2796 16.0746 22.19 15.9876 22.0734 15.9466C21.7573 15.8475 21.4825 16.1869 21.2705 16.4499C20.6316 17.2719 19.5367 17.778 18.5361 17.5199C18.1788 17.4224 17.8306 17.2257 17.6414 16.8999C17.3285 16.3484 17.5763 15.6151 17.2799 15.0545C16.9478 14.4298 16.1165 14.2884 15.4069 14.3317C14.7054 14.3705 13.9332 14.4902 13.331 14.1183C12.9354 13.8742 12.6897 13.464 12.3732 13.1346C12.0522 12.7971 11.5934 12.5143 11.1545 12.6503C10.8704 12.7433 10.6658 12.9812 10.4558 13.1907C9.76573 13.8626 8.81094 14.2605 7.84541 14.2765C7.68108 14.2828 7.5162 14.2684 7.38543 14.1829C7.13228 14.0074 7.15417 13.6077 7.32095 13.3381C7.60353 12.8791 8.16325 12.677 8.6466 12.4119C9.12952 12.1471 9.60959 11.6847 9.51918 11.137C9.48615 10.9245 9.3474 10.7282 9.28154 10.5128C9.06717 9.83396 9.65291 9.03063 10.3641 9.0283C11.0753 9.02596 11.7694 9.66185 12.4205 9.37801C13.0223 9.10043 13.045 8.28107 13.2054 7.63763C13.3697 6.98166 13.7718 6.41524 14.2901 5.98438C15.3634 10.3526 19.8492 13.9705 25.6003 14.6413C30.4271 15.2112 34.8858 13.5413 37.394 10.6252C37.9135 11.2102 38.3181 11.9104 38.2895 12.6806C38.2616 13.3561 37.8973 14.0484 38.139 14.6809Z"
    fill="#80ED99"/>
  <path
    d="M3.2855 23.1531C3.33245 22.5413 3.50932 21.9481 3.68524 21.3603C4.06809 20.0808 4.54603 18.6779 5.71074 18.0251C7.26552 17.1537 9.1871 18.042 10.9687 17.999C11.3651 17.9894 11.7599 17.9322 12.1565 17.9368C13.6166 17.9536 14.9474 18.806 15.9815 19.8376C17.0155 20.8692 17.836 22.0963 18.8483 23.149C19.4527 23.7777 20.1995 24.3727 21.0712 24.3947C21.7743 24.4124 22.595 24.0842 23.11 24.5635C23.6208 25.039 23.3605 25.8809 23.0661 26.5137C22.3939 27.9578 21.7217 29.4017 21.0496 30.8458C20.875 31.2208 20.6962 31.6221 20.7514 32.032C20.8336 32.6423 21.4221 33.1902 21.2316 33.7757C21.1367 34.0669 20.871 34.2622 20.6794 34.5012C20.2296 35.0621 20.2027 35.8406 19.9689 36.5205C19.3589 38.2946 17.0693 39.2597 15.3744 38.4573C14.3329 37.9643 13.6228 36.979 12.9959 36.0119C12.8237 35.7463 12.6496 35.4663 12.6174 35.1514C12.5878 34.8633 12.6808 34.573 12.6506 34.2849C12.5859 33.6675 12.0066 33.2614 11.5746 32.8158C10.6164 31.827 10.2731 30.2861 10.7208 28.9838C10.7697 28.8418 10.8278 28.6897 10.7855 28.5456C10.7443 28.4057 10.6188 28.3098 10.4986 28.2273C9.03657 27.2221 7.318 26.7294 5.55373 26.7147C3.89463 26.7009 3.16897 24.6721 3.2855 23.1531Z"
    fill="#80ED99"/>
  <path
    d="M20.5272 34.7177C20.2144 35.256 20.1699 35.9196 19.9621 36.5156C19.3555 38.2946 17.0652 39.2571 15.3701 38.4577C14.3318 37.9582 13.6166 36.9778 12.992 36.0103C12.8179 35.7495 12.6506 35.464 12.6144 35.1485C12.5827 34.862 12.6747 34.5705 12.6433 34.2837C12.587 33.6648 12.0004 33.2635 11.5767 32.8148C10.614 31.8233 10.2725 30.2814 10.7121 28.9818C10.7686 28.8356 10.8246 28.6896 10.7863 28.543C10.7397 28.4008 10.6172 28.3109 10.4947 28.2208C9.03447 27.2191 7.3182 26.7247 5.55 26.7095C3.88889 26.6983 3.16705 24.6733 3.28603 23.1516C3.32905 22.5412 3.50371 21.9423 3.68717 21.3597C4.0662 20.0828 4.54337 18.6789 5.70255 18.0223C6.36288 17.6601 7.07633 17.6041 7.81802 17.6584C7.92521 20.8169 9.33403 24.5923 11.9257 28.0229C14.4441 31.3575 17.5828 33.7022 20.5272 34.7177Z"
    fill="#80ED99"/>
  <path
    d="M33.1631 21.987C32.632 21.987 32.1001 21.6712 31.7694 21.3647C31.2053 20.8446 30.7574 20.2216 30.3245 19.6189C30.0504 19.2379 29.7675 18.8435 29.4619 18.4884C29.0392 17.9973 27.9125 16.8786 26.6052 17.0428C26.4009 17.0703 26.2013 17.1269 26.0003 17.1835C25.8423 17.2275 25.6837 17.2723 25.5225 17.3052C24.3409 17.559 23.0493 17.2078 22.1512 16.3978C22.0821 16.3342 22.0177 16.2745 21.9768 16.2611C21.8621 16.2297 21.6225 16.5283 21.5211 16.6579C20.7534 17.6415 19.5184 18.1137 18.4514 17.8348C17.958 17.7059 17.5707 17.4325 17.3617 17.0657C17.1653 16.7184 17.1473 16.3311 17.1315 15.9885C17.1174 15.6986 17.1049 15.4252 16.9932 15.213C16.6994 14.6544 15.8022 14.6379 15.4234 14.6599L15.125 14.6779C14.4855 14.7212 13.7657 14.7684 13.1593 14.3975C12.8419 14.2011 12.6172 13.9292 12.4004 13.6661C12.3131 13.5608 12.2267 13.4563 12.1341 13.3574C11.8992 13.1091 11.5464 12.8734 11.2486 12.9678C11.0852 13.0189 10.9383 13.1674 10.7828 13.3236L10.6799 13.4266C9.92639 14.1588 8.89402 14.5901 7.84681 14.6097C7.6488 14.6113 7.40915 14.5987 7.2002 14.4541C6.7877 14.165 6.7963 13.5797 7.04222 13.1798C7.32108 12.7272 7.79338 12.4892 8.20969 12.2794C8.30477 12.2315 8.39901 12.1843 8.49015 12.1341C8.85622 11.9353 9.26168 11.5723 9.19805 11.2031C9.18307 11.1135 9.13836 11.0145 9.0912 10.9092C9.04796 10.8125 9.00557 10.716 8.97413 10.6161C8.84293 10.2045 8.93091 9.72593 9.21146 9.33861C9.4935 8.94971 9.92245 8.71556 10.3601 8.71163C10.7003 8.71397 11.0382 8.83105 11.3508 8.94886C11.7131 9.08484 12.0225 9.20189 12.2834 9.0879C12.6142 8.94024 12.7061 8.47591 12.8027 7.98333C12.8309 7.84034 12.8593 7.6981 12.8931 7.56383C13.1358 6.5983 13.865 5.72934 14.8439 5.23984C15.6916 4.81555 16.7153 4.65769 17.8065 4.7841C17.9283 4.79823 18.0517 4.81555 18.175 4.83286C18.6072 4.89256 19.0117 4.94992 19.385 4.85644C19.9483 4.7143 20.3796 4.25464 20.8353 3.76758L21.0954 3.49415C21.8936 2.67235 22.8648 1.99121 23.9018 1.52295C24.176 1.40036 24.3897 1.30454 24.5036 1.14891C24.5947 1.02633 24.6317 0.846479 24.6583 0.669712C24.6709 0.584091 24.7228 0.46851 24.7935 0.417519C24.8642 0.367273 24.9538 0.308313 25.0417 0.322441C28.6817 0.952492 32.1111 2.51757 34.9575 4.84858C35.0416 4.91688 35.0848 5.023 35.0746 5.12987L35.0597 5.32939C34.9826 6.5589 35.1594 7.51273 35.6001 8.24413C35.9097 8.75563 36.3528 9.17045 36.8218 9.60961C37.0057 9.7817 37.1894 9.95454 37.3662 10.1329C38.2241 11.0003 38.6422 11.8637 38.6084 12.6996C38.5982 12.9731 38.5392 13.2378 38.4827 13.4932C38.3955 13.8867 38.3138 14.2583 38.4316 14.5718C38.5337 14.8453 38.793 15.0982 39.0428 15.3434C39.4616 15.7535 39.937 16.2179 39.7853 16.8927C39.5975 17.7279 38.6217 17.9503 37.8432 17.8842C36.8242 17.7986 35.8146 17.4945 34.9229 17.0058C34.82 16.9493 34.6779 16.8698 34.6205 16.888C34.5851 16.8966 34.5223 16.9594 34.4571 17.1095C34.1884 17.7271 34.2426 18.4263 34.2992 19.1672C34.3432 19.7368 34.3881 20.3261 34.2851 20.9066C34.2521 21.1031 34.1838 21.3946 33.9818 21.6255C33.7965 21.8423 33.5379 21.9672 33.2378 21.9846C33.2134 21.9863 33.1883 21.987 33.1631 21.987ZM26.866 16.3829C27.9109 16.3829 29.0172 16.9824 29.9505 18.0689C30.2734 18.4452 30.5657 18.8514 30.847 19.2435C31.2806 19.8461 31.69 20.4157 32.207 20.8926C32.511 21.1739 32.9383 21.3585 33.2008 21.342C33.3274 21.3348 33.4208 21.2909 33.4947 21.2053C33.5693 21.1196 33.618 20.9908 33.651 20.796C33.7406 20.2939 33.6997 19.7706 33.6573 19.2167C33.5967 18.4303 33.5347 17.6164 33.8663 16.8534C34.0085 16.5251 34.2119 16.3255 34.4696 16.2618C34.776 16.1903 35.0392 16.3341 35.231 16.4409C36.0457 16.8872 36.9673 17.1646 37.8967 17.2431C38.4467 17.2887 39.0665 17.1527 39.1569 16.7512C39.2268 16.4425 38.988 16.1902 38.5929 15.8038C38.3061 15.5225 37.9809 15.2043 37.8292 14.7981C37.6438 14.3063 37.7506 13.8223 37.8543 13.354C37.9069 13.1152 37.9573 12.8897 37.9659 12.6736C37.9918 12.0231 37.6359 11.3207 36.9084 10.5853C36.7379 10.4125 36.5595 10.2459 36.382 10.0793C35.9012 9.62999 35.4047 9.16482 35.0495 8.57641C34.538 7.72869 34.3314 6.65397 34.4171 5.28849C34.4171 5.2869 34.4179 5.28531 34.4179 5.28382L34.4203 5.24142C31.7686 3.10598 28.6071 1.64935 25.2484 1.01452C25.2068 1.19214 25.1408 1.37041 25.0214 1.53146C24.8077 1.82221 24.4919 1.96359 24.213 2.08852C23.2019 2.54499 22.2999 3.17898 21.5575 3.94267L21.3053 4.20824C20.8056 4.74088 20.2887 5.29241 19.5423 5.48023C19.0489 5.60675 18.5595 5.53675 18.0857 5.47004C17.9679 5.45346 17.8508 5.437 17.7337 5.42361C16.7674 5.31281 15.867 5.44792 15.1317 5.81484C14.3185 6.22181 13.7151 6.93442 13.5172 7.72084C13.4866 7.84491 13.4606 7.97536 13.4346 8.10815C13.316 8.70994 13.1808 9.39194 12.5445 9.67632C12.0432 9.89865 11.5554 9.71402 11.1249 9.55139C10.8546 9.45004 10.6032 9.31651 10.3651 9.35571C10.1317 9.3573 9.89524 9.49168 9.73335 9.7155C9.5723 9.93784 9.51814 10.2018 9.58804 10.4218C9.61236 10.4996 9.64615 10.5727 9.67845 10.645C9.7374 10.7762 9.80409 10.9247 9.8332 11.0952C9.93529 11.6915 9.54882 12.2918 8.79852 12.6995C8.70111 12.7522 8.60053 12.8032 8.49993 12.8535C8.12674 13.0421 7.77394 13.2197 7.59091 13.5175C7.50051 13.6644 7.48883 13.8703 7.56733 13.9261C7.6247 13.9654 7.74483 13.9725 7.83449 13.9654C8.72066 13.9489 9.59439 13.5843 10.2316 12.9652L10.3258 12.8709C10.5199 12.6744 10.7406 12.4521 11.0565 12.3531C11.5476 12.1999 12.1258 12.4089 12.6035 12.9164C12.7056 13.0249 12.8015 13.1404 12.8966 13.2558C13.0891 13.4892 13.2713 13.71 13.4976 13.8498C13.9273 14.1122 14.4867 14.0753 15.0822 14.036L15.3902 14.0172C16.4516 13.9543 17.2302 14.2781 17.5633 14.9137C17.7409 15.2515 17.759 15.627 17.7747 15.9578C17.7889 16.2547 17.8023 16.5353 17.9224 16.7474C18.0427 16.9588 18.2948 17.1285 18.6146 17.2125C19.4223 17.4239 20.4122 17.0325 21.014 16.2618C21.2277 15.9876 21.6229 15.477 22.172 15.6475C22.3511 15.7049 22.4761 15.8212 22.5767 15.9146C23.3316 16.5957 24.4096 16.8872 25.3909 16.6751C25.5386 16.6444 25.6831 16.6043 25.8269 16.5635C26.0571 16.4992 26.2865 16.4354 26.5214 16.4048C26.6351 16.39 26.7505 16.3829 26.866 16.3829Z"
    fill="black"/>
  <path
    d="M16.683 39.0592C16.1754 39.0592 15.6812 38.9531 15.235 38.7418C14.102 38.2051 13.3447 37.1383 12.7233 36.1806C12.5599 35.9284 12.336 35.5827 12.2951 35.1781C12.277 34.9997 12.2958 34.8292 12.3124 34.6784C12.3265 34.5464 12.3399 34.4223 12.3289 34.3115C12.2896 33.939 11.9691 33.6357 11.6296 33.3145C11.5306 33.221 11.4325 33.1275 11.3413 33.0332C10.3011 31.9599 9.92867 30.2881 10.4143 28.8731C10.4488 28.7741 10.4857 28.6681 10.474 28.6281C10.4668 28.6029 10.4127 28.5542 10.3136 28.4867C8.94902 27.5478 7.3015 27.0442 5.5486 27.0309C4.92323 27.0254 4.35914 26.7676 3.9168 26.2852C3.24585 25.5538 2.87107 24.3125 2.96296 23.1221C3.01246 22.4732 3.19709 21.8573 3.37545 21.2617C3.79421 19.8609 4.3072 18.4349 5.55179 17.7381C6.6619 17.1158 7.91349 17.3075 9.12419 17.4945C9.73469 17.588 10.3592 17.6823 10.9587 17.6713C11.126 17.6666 11.2934 17.654 11.46 17.6414C11.6925 17.6241 11.9282 17.6076 12.1584 17.6084C13.8712 17.628 15.305 18.7044 16.2061 19.6032C16.7647 20.1602 17.2651 20.7762 17.7491 21.3724C18.1725 21.8934 18.6102 22.4323 19.0776 22.9195C19.8161 23.6862 20.4517 24.0508 21.0771 24.0673C21.2751 24.0649 21.4801 24.046 21.686 24.0224C22.2359 23.9565 22.8582 23.885 23.3272 24.3218C23.8403 24.7995 23.8505 25.5804 23.3555 26.6435L21.3387 30.9756C21.1604 31.3599 21.0268 31.6772 21.0685 31.9828C21.0944 32.1769 21.1942 32.3812 21.2994 32.598C21.4825 32.9712 21.6891 33.3954 21.5359 33.8692C21.4471 34.1411 21.2626 34.3343 21.0999 34.5055C21.041 34.5676 20.9813 34.6296 20.9278 34.6957C20.671 35.017 20.5711 35.4469 20.4651 35.9017C20.4086 36.1437 20.3511 36.3873 20.271 36.619C19.9504 37.5516 19.1954 38.3262 18.2001 38.7458C17.7043 38.9548 17.1874 39.0592 16.683 39.0592ZM3.60407 23.1709C3.5397 24.0076 3.75809 25.161 4.39133 25.85C4.71427 26.2028 5.10551 26.3835 5.55327 26.3866C7.43567 26.4023 9.20736 26.9444 10.6781 27.9564C10.7952 28.0365 11.0145 28.1865 11.0922 28.4474C11.1605 28.6871 11.0843 28.9055 11.0286 29.065C10.6137 30.2741 10.9272 31.6812 11.8032 32.5855C11.8888 32.6735 11.98 32.76 12.0719 32.8472C12.4624 33.2164 12.9039 33.6359 12.9683 34.2448C12.9871 34.4239 12.9683 34.5961 12.9518 34.7485C12.9376 34.879 12.9235 35.003 12.9353 35.1131C12.9589 35.3449 13.0917 35.5656 13.2637 35.8303C13.8364 36.7142 14.5294 37.6963 15.5099 38.1606C16.2359 38.5032 17.126 38.5 17.9501 38.1527C18.7774 37.8047 19.4012 37.169 19.6628 36.4101C19.7351 36.1987 19.7862 35.9764 19.838 35.7557C19.9558 35.2504 20.0777 34.7287 20.4257 34.2935C20.49 34.2134 20.5616 34.1371 20.6339 34.0617C20.7658 33.9227 20.8798 33.8025 20.9238 33.6697C20.9969 33.4442 20.8688 33.1827 20.7211 32.8801C20.5978 32.6272 20.4705 32.3655 20.4305 32.0685C20.3606 31.5531 20.5884 31.0621 20.7557 30.7039L22.7725 26.3717C23.1355 25.5907 23.1748 25.0597 22.8887 24.7934C22.6381 24.5585 22.2328 24.6071 21.7606 24.6614C21.5249 24.6889 21.2876 24.7195 21.0614 24.7102C20.0024 24.6834 19.157 23.93 18.614 23.3659C18.127 22.8591 17.6807 22.31 17.2493 21.7781C16.7755 21.1951 16.2861 20.5926 15.7519 20.0591C14.9348 19.2444 13.6471 18.2693 12.1505 18.2529C11.9454 18.2387 11.7231 18.2663 11.5086 18.2835C11.3311 18.2969 11.1528 18.3101 10.9744 18.3142C10.3262 18.3394 9.66543 18.2293 9.02678 18.1303C7.87259 17.9543 6.78289 17.7853 5.86613 18.2992C4.83145 18.879 4.37338 20.1714 3.99159 21.4457C3.82332 22.0089 3.6489 22.5918 3.60407 23.1709Z"
    fill="black"/>
  <path
    d="M21.4316 42.8483C19.4172 42.8483 17.3917 42.5616 15.4049 41.9809C9.91628 40.3783 5.37984 36.7335 2.63167 31.7179C-3.04154 21.3629 0.762556 8.3209 11.1121 2.64534C16.1254 -0.102933 21.9102 -0.734592 27.398 0.866613C32.8866 2.46931 37.423 6.11407 40.1705 11.1297C45.8445 21.4847 42.0403 34.5267 31.6909 40.2022C28.4923 41.9566 24.9804 42.8483 21.4316 42.8483ZM21.3712 0.643546C17.9292 0.643546 14.5234 1.50858 11.4215 3.20954C1.38313 8.71544 -2.30709 21.3653 3.19573 31.4084C5.86146 36.274 10.2611 39.8086 15.5848 41.3634C20.9084 42.9175 26.518 42.3046 31.3812 39.6381C41.4195 34.133 45.109 21.4824 39.6063 11.4393C36.9405 6.57447 32.5409 3.03902 27.2172 1.48498C25.29 0.921645 23.3243 0.643546 21.3712 0.643546Z"
    fill="black"/>
  <path
    d="M49.3405 22.9007C50.3251 22.3324 51.1272 22.7894 51.1304 23.9157L51.1584 34.8744C51.1616 36.0057 50.3648 37.3808 49.3801 37.9491L32.9544 47.4318C31.9697 48.0002 31.1719 47.5456 31.1687 46.4144L31.1406 35.4557C31.1374 34.3293 31.93 32.9518 32.9148 32.3833L49.3405 22.9007Z"
    fill="white"/>
  <path
    d="M51.1637 34.8731C51.1637 36.0064 50.3663 37.377 49.3842 37.9503L32.9581 47.4311C31.9762 47.9978 31.1721 47.5431 31.1721 46.4096L31.1523 38.3903C32.6682 38.6144 34.2366 38.7264 35.8447 38.7264C48.3996 38.7264 48.7383 37.443 48.7383 28.8569C48.7383 27.1305 48.3297 25.47 47.5718 23.9215L49.3448 22.9001C50.3268 22.3334 51.1308 22.7881 51.1308 23.9148L51.1637 34.8731Z"
    fill="#E9EDF4"/>
  <path
    d="M32.1551 47.9939C31.9304 47.9939 31.7199 47.9404 31.5321 47.832C31.0929 47.5798 30.8509 47.0747 30.8486 46.4091L30.8203 35.4508C30.8171 34.2 31.6673 32.7277 32.7554 32.0983L49.1812 22.6162C49.765 22.2816 50.3283 22.2368 50.7698 22.4906C51.2089 22.7428 51.4517 23.2472 51.4541 23.9095L51.4824 34.8679C51.4855 36.1186 50.6338 37.5926 49.5434 38.2226L33.1175 47.7047C32.7844 47.8972 32.4568 47.9939 32.1551 47.9939ZM50.1434 22.973C49.9533 22.973 49.7333 23.0413 49.5031 23.1741L33.0773 32.6562C32.1997 33.1629 31.4612 34.442 31.4643 35.4492L31.4925 46.4075C31.4934 46.8334 31.6214 47.1405 31.8523 47.274C32.0825 47.4061 32.4266 47.3604 32.7951 47.1468L49.2208 37.6647C50.1 37.1571 50.8409 35.8765 50.8378 34.8694L50.8095 23.911C50.8087 23.4883 50.6799 23.1819 50.4481 23.0483C50.3611 22.998 50.2574 22.973 50.1434 22.973Z"
    fill="black"/>
  <path
    d="M47.8285 21.1487C47.4989 20.9642 47.0506 20.9906 46.5563 21.274L30.1303 30.7547C29.6547 31.0324 29.2248 31.5003 28.9062 32.0353L31.6913 33.6548C32.0102 33.1187 32.4413 32.6509 32.9181 32.3757L49.3443 22.8949C49.8386 22.605 50.2866 22.5787 50.6161 22.7697L47.8285 21.1487Z"
    fill="#80ED99"/>
  <path
    d="M31.6931 33.9797C31.638 33.9797 31.5822 33.9655 31.5313 33.9357L28.7461 32.3164C28.6723 32.2732 28.618 32.2024 28.596 32.1193C28.5748 32.036 28.5873 31.9472 28.6314 31.8733C28.9928 31.2676 29.4682 30.7726 29.9702 30.4796L46.3975 20.9975C46.9789 20.6652 47.5414 20.6204 47.9877 20.871C47.9893 20.8717 47.9908 20.8726 47.9923 20.8733L50.7798 22.4942C50.933 22.5837 50.9857 22.7801 50.8961 22.9342C50.8066 23.0881 50.6086 23.14 50.457 23.0504C50.4561 23.0504 50.4561 23.0504 50.4561 23.0504L50.4554 23.0497C50.2157 22.9129 49.8811 22.9569 49.5087 23.1753L33.0814 32.6574C32.6705 32.8939 32.2761 33.308 31.9697 33.8225C31.9091 33.9231 31.8023 33.9797 31.6931 33.9797ZM29.362 31.93L31.5886 33.2247C31.9234 32.74 32.3318 32.3463 32.7593 32.0996L49.1851 22.6191C49.2802 22.5633 49.3744 22.5162 49.4687 22.4761L47.6711 21.4312C47.4299 21.2984 47.092 21.3424 46.7181 21.5553L30.2932 31.0366C29.9599 31.2307 29.6362 31.5426 29.362 31.93Z"
    fill="black"/>
  <path
    d="M28.3516 33.8357L28.378 44.7924C28.378 45.3524 28.5755 45.7479 28.8986 45.9324L31.6864 47.5533C31.3633 47.3688 31.1657 46.9735 31.1657 46.4134L31.1394 35.4501C31.136 34.8705 31.3476 34.2262 31.6853 33.6586L28.9003 32.0391C28.5609 32.6088 28.3482 33.2547 28.3516 33.8357Z"
    fill="#80ED99"/>
  <path
    d="M31.6886 47.8764C31.6344 47.8764 31.5801 47.8623 31.5299 47.834C31.5229 47.8301 31.5165 47.8269 31.5102 47.823L28.7384 46.2116C28.3008 45.961 28.0579 45.4573 28.0579 44.7935L28.0313 33.8375C28.0281 33.2207 28.2395 32.5238 28.6252 31.8757C28.7164 31.7241 28.9112 31.6738 29.0636 31.7626L31.8488 33.3819C31.9226 33.4251 31.9768 33.4958 31.9989 33.579C32.0201 33.6623 32.0075 33.7511 31.9635 33.8249C31.6422 34.3631 31.4599 34.9555 31.463 35.4497L31.4897 46.4136C31.4897 46.8316 31.6123 47.1341 31.837 47.2685L31.8504 47.2763C32.0035 47.3651 32.0554 47.5615 31.9674 47.7147C31.9078 47.8182 31.8001 47.8764 31.6886 47.8764ZM29.026 32.4853C28.799 32.9457 28.6732 33.4241 28.6756 33.835V33.8359L28.7022 44.7927C28.7022 45.2161 28.8287 45.5217 29.0597 45.6538L30.862 46.7018C30.8509 46.6099 30.8455 46.514 30.8455 46.4143L30.8189 35.4519C30.8165 34.9263 30.969 34.3419 31.2534 33.78L29.026 32.4853Z"
    fill="black"/>
  <path
    d="M38.1897 34.5613C38.2887 34.5042 38.3657 34.4923 38.4205 34.5282C38.4772 34.5628 38.5057 34.6347 38.5061 34.7462C38.5062 34.7949 38.4983 34.846 38.4843 34.896L36.7756 40.6884C36.6792 40.9881 36.534 41.1952 36.344 41.3048L36.1903 41.3935C36.0003 41.5032 35.8564 41.4629 35.7566 41.2764L34.0206 37.4716C34.0064 37.4379 34.0002 37.395 34 37.3463C33.9997 37.2348 34.0277 37.1303 34.082 37.0315C34.1384 36.9315 34.2152 36.8546 34.3122 36.7986C34.3768 36.7613 34.4376 36.7473 34.4904 36.7633C34.545 36.7782 34.5856 36.813 34.6141 36.8732L36.2649 40.6202L37.8911 34.9824C37.9192 34.8895 37.9595 34.8081 38.0119 34.7313C38.0665 34.6534 38.125 34.5987 38.1897 34.5613Z"
    fill="black"/>
  <path
    d="M42.9334 32.7796C43.0553 32.9766 43.1168 33.2295 43.1177 33.5406C43.1185 33.8493 43.0587 34.1723 42.9382 34.5091C42.8177 34.8461 42.6182 35.1821 42.3396 35.5126C42.0612 35.8453 41.7016 36.1388 41.2609 36.3931L39.9913 37.1257L39.9962 38.8389C39.9965 38.9411 39.9644 39.0457 39.902 39.1491C39.8395 39.2549 39.7648 39.3329 39.6759 39.3842C39.587 39.4355 39.514 39.4428 39.4533 39.4081C39.3924 39.3758 39.3619 39.3074 39.3616 39.2052L39.3477 34.3045C39.3473 34.2023 39.3774 34.099 39.4379 33.9921C39.4983 33.8828 39.5711 33.806 39.66 33.7546L41.2509 32.8366C41.6915 32.5823 42.0516 32.4606 42.331 32.4692C42.6105 32.4799 42.8113 32.5826 42.9334 32.7796ZM42.196 34.8491C42.3874 34.5316 42.4838 34.2156 42.4829 33.9069C42.4821 33.5958 42.3843 33.3941 42.1917 33.2961C41.9971 33.1991 41.6632 33.2895 41.1901 33.5624L39.9832 34.2587L39.9894 36.4363L41.1963 35.74C41.6692 35.4669 42.0026 35.1699 42.196 34.8491Z"
    fill="black"/>
  <path
    d="M47.9595 28.9293C48.0484 28.878 48.1253 28.8685 48.1882 28.9042C48.2511 28.94 48.2817 29.0107 48.282 29.1105L48.2956 33.8929C48.296 34.0368 48.2519 34.1855 48.1612 34.3401C48.0705 34.4924 47.9634 34.6053 47.8362 34.6789L47.7532 34.7267C47.6784 34.7698 47.6097 34.7908 47.5449 34.7865C47.4781 34.7855 47.4253 34.7648 47.3827 34.7243L44.6713 31.8055L44.6836 36.1375C44.6839 36.2396 44.6537 36.343 44.5913 36.4465C44.5287 36.5523 44.452 36.6315 44.3631 36.6828C44.2761 36.7329 44.2012 36.7413 44.1404 36.7067C44.0796 36.6744 44.0491 36.606 44.0488 36.5038L44.0352 31.7214C44.0347 31.5775 44.0788 31.4289 44.1675 31.273C44.2542 31.1183 44.3612 31.0054 44.4865 30.9331L44.5775 30.8806C44.727 30.7942 44.8546 30.7998 44.9622 30.8981L47.6595 33.8017L47.6473 29.4768C47.647 29.3769 47.677 29.2712 47.7375 29.1642C47.7978 29.0574 47.8726 28.9794 47.9595 28.9293Z"
    fill="black"/>
</svg>
