<svg width="20" height="21" viewBox="0 0 20 21" fill="none" xmlns="http://www.w3.org/2000/svg">
<path d="M10.6193 4.90827C10.6193 4.90827 2.46734 0.388266 1.98734 0.124266C1.50734 -0.139734 1.02734 0.020266 1.02734 0.572266V20.0523C1.02734 20.4683 1.37134 20.6443 1.78734 20.4203C2.20334 20.1883 10.6193 15.5243 10.6193 15.5243C10.6193 15.5243 11.7633 14.8923 12.3313 14.5723C13.2513 14.0603 15.0913 13.0443 15.0913 13.0443C15.0913 13.0443 18.8913 10.9403 19.3953 10.6603C19.8993 10.3803 19.8513 9.99627 19.4273 9.78027C19.0033 9.56427 15.0993 7.38027 15.0993 7.38027L10.6193 4.90827Z" fill="url(#paint0_linear_1532_20855)"/>
<path d="M12.12 10.1912L1.4 0.03125C1.152 0.08725 1 0.27925 1 0.59125V20.0312C1 20.2952 1.104 20.4552 1.24 20.5112L12.12 10.1912Z" fill="url(#paint1_linear_1532_20855)"/>
<path d="M10.6 4.90958C10.584 4.94958 2.432 0.421582 1.96 0.189582C1.48 -0.114418 1 0.0535824 1 0.589582V20.1096C1 20.5416 1.344 20.7176 1.72 20.5096C2.176 20.2536 10.584 15.5896 10.6 15.5496L15.08 13.0696C15.056 13.1016 18.848 10.9976 19.32 10.7496C19.864 10.4376 19.808 10.0536 19.4 9.86958C18.96 9.61358 15.056 7.42958 15.08 7.38958L10.6 4.90958Z" fill="url(#paint2_linear_1532_20855)"/>
<path d="M1.96662 0.112667C1.75862 0.00866667 1.55862 -0.0233333 1.39062 0.0166667L12.1186 10.1927L15.0866 7.38467L10.6146 4.90467C10.6146 4.90467 6.39862 2.56867 3.85462 1.16067L1.96662 0.112667Z" fill="url(#paint3_linear_1532_20855)"/>
<defs>
<linearGradient id="paint0_linear_1532_20855" x1="5.44939" y1="6.4771" x2="12.2429" y2="16.4466" gradientUnits="userSpaceOnUse">
<stop stop-color="#FF177B"/>
<stop offset="1" stop-color="#FFEC73"/>
</linearGradient>
<linearGradient id="paint1_linear_1532_20855" x1="8.33768" y1="-7.47787" x2="-3.86483" y2="18.4351" gradientUnits="userSpaceOnUse">
<stop stop-color="#064AA2"/>
<stop offset="1" stop-color="#63FFD4"/>
</linearGradient>
<linearGradient id="paint2_linear_1532_20855" x1="12.033" y1="4.15367" x2="-2.98514" y2="13.1379" gradientUnits="userSpaceOnUse">
<stop stop-color="#FF4521"/>
<stop offset="1" stop-color="#8A33DB"/>
</linearGradient>
<linearGradient id="paint3_linear_1532_20855" x1="3.41914" y1="-3.24399" x2="8.79592" y2="10.7319" gradientUnits="userSpaceOnUse">
<stop stop-color="#00A3B5"/>
<stop offset="1" stop-color="#D6FFA1"/>
</linearGradient>
</defs>
</svg>
