<svg width="87" height="26" viewBox="0 0 87 26" fill="none" xmlns="http://www.w3.org/2000/svg">
  <path
    d="M30.4716 4.07386H29.5852C29.5511 3.88447 29.4877 3.7178 29.3949 3.57386C29.3021 3.42992 29.1884 3.30777 29.054 3.20739C28.9195 3.10701 28.7689 3.03125 28.6023 2.98011C28.4375 2.92898 28.2623 2.90341 28.0767 2.90341C27.7415 2.90341 27.4413 2.98769 27.1761 3.15625C26.9129 3.32481 26.7045 3.57197 26.5511 3.89773C26.3996 4.22348 26.3239 4.62121 26.3239 5.09091C26.3239 5.56439 26.3996 5.96402 26.5511 6.28977C26.7045 6.61553 26.9138 6.86174 27.179 7.02841C27.4441 7.19508 27.7424 7.27841 28.0739 7.27841C28.2576 7.27841 28.4318 7.25379 28.5966 7.20455C28.7633 7.15341 28.9138 7.0786 29.0483 6.98011C29.1828 6.88163 29.2964 6.76136 29.3892 6.61932C29.4839 6.47538 29.5492 6.31061 29.5852 6.125L30.4716 6.12784C30.4242 6.41383 30.3324 6.67708 30.196 6.91761C30.0616 7.15625 29.8883 7.36269 29.6761 7.53693C29.4659 7.70928 29.2254 7.8428 28.9545 7.9375C28.6837 8.0322 28.3883 8.07955 28.0682 8.07955C27.5644 8.07955 27.1155 7.96023 26.7216 7.72159C26.3277 7.48106 26.017 7.13731 25.7898 6.69034C25.5644 6.24337 25.4517 5.71023 25.4517 5.09091C25.4517 4.4697 25.5653 3.93655 25.7926 3.49148C26.0199 3.04451 26.3305 2.7017 26.7244 2.46307C27.1184 2.22254 27.5663 2.10227 28.0682 2.10227C28.3769 2.10227 28.6648 2.14678 28.9318 2.2358C29.2008 2.32292 29.4422 2.4517 29.6562 2.62216C29.8703 2.79072 30.0473 2.99716 30.1875 3.24148C30.3277 3.4839 30.4223 3.76136 30.4716 4.07386ZM34.9737 8L33.0192 5.39205H32.3999V8H31.522V2.18182H32.3999V4.6392H32.6868L34.8857 2.18182H35.9567L33.63 4.78693L36.0447 8H34.9737ZM37.3494 8H36.4176L38.5114 2.18182H39.5256L41.6193 8H40.6875L39.0426 3.23864H38.9972L37.3494 8ZM37.5057 5.72159H40.5284V6.46023H37.5057V5.72159ZM42.576 2.18182H43.4425V4.10227C43.4425 4.36932 43.4889 4.58049 43.5817 4.7358C43.6745 4.8892 43.8089 4.99811 43.9851 5.0625C44.1631 5.12689 44.379 5.15909 44.6328 5.15909C44.7673 5.15909 44.9036 5.15436 45.0419 5.14489C45.1821 5.13352 45.3213 5.11837 45.4595 5.09943C45.5978 5.0786 45.7313 5.05492 45.8601 5.02841C45.9908 5 46.112 4.96875 46.2237 4.93466V5.68182C46.1139 5.7178 45.9974 5.75 45.8743 5.77841C45.7531 5.80492 45.6262 5.8286 45.4936 5.84943C45.361 5.86837 45.2228 5.88352 45.0788 5.89489C44.9349 5.90625 44.7862 5.91193 44.6328 5.91193C44.2086 5.91193 43.8421 5.85133 43.5334 5.73011C43.2266 5.60701 42.9898 5.41288 42.8232 5.14773C42.6584 4.88258 42.576 4.53409 42.576 4.10227V2.18182ZM46.093 2.18182H46.9624V8H46.093V2.18182ZM48.8026 8H47.8707L49.9645 2.18182H50.9787L53.0724 8H52.1406L50.4957 3.23864H50.4503L48.8026 8ZM48.9588 5.72159H51.9815V6.46023H48.9588V5.72159ZM52.9382 2.9375V2.18182H57.4411V2.9375H55.6257V8H54.7507V2.9375H52.9382ZM59.0526 4.52841H60.6207C61.0526 4.52841 61.42 4.59848 61.723 4.73864C62.026 4.87879 62.2571 5.0767 62.4162 5.33239C62.5772 5.58807 62.6567 5.8892 62.6548 6.2358C62.6567 6.58239 62.5772 6.88826 62.4162 7.15341C62.2571 7.41856 62.026 7.62595 61.723 7.77557C61.42 7.92519 61.0526 8 60.6207 8H58.4418V2.18182H59.3224V7.26136H60.6207C60.8726 7.26136 61.0848 7.21212 61.2571 7.11364C61.4313 7.01515 61.563 6.88731 61.652 6.73011C61.7429 6.57292 61.7884 6.40436 61.7884 6.22443C61.7884 5.96307 61.688 5.73864 61.4872 5.55114C61.2865 5.36174 60.9976 5.26705 60.6207 5.26705H59.0526V4.52841ZM66.3338 8H65.402L67.4957 2.18182H68.5099L70.6037 8H69.6719L68.027 3.23864H67.9815L66.3338 8ZM66.4901 5.72159H69.5128V6.46023H66.4901V5.72159ZM71.4439 8V2.18182H73.5178C73.9704 2.18182 74.3454 2.2642 74.6428 2.42898C74.9401 2.59375 75.1626 2.81913 75.3104 3.10511C75.4581 3.3892 75.532 3.70928 75.532 4.06534C75.532 4.4233 75.4571 4.74527 75.3075 5.03125C75.1598 5.31534 74.9363 5.54072 74.6371 5.70739C74.3397 5.87216 73.9657 5.95455 73.5149 5.95455H72.0888V5.21023H73.4354C73.7214 5.21023 73.9534 5.16098 74.1314 5.0625C74.3094 4.96212 74.4401 4.82576 74.5234 4.65341C74.6068 4.48106 74.6484 4.28504 74.6484 4.06534C74.6484 3.84564 74.6068 3.65057 74.5234 3.48011C74.4401 3.30966 74.3085 3.17614 74.1286 3.07955C73.9505 2.98295 73.7157 2.93466 73.424 2.93466H72.3217V8H71.4439ZM76.5611 8V2.18182H77.4389V4.96023H77.5099L79.9503 2.18182H81.0554L78.7088 4.80114L81.0639 8H80.0071L78.1264 5.40057L77.4389 6.19034V8H76.5611Z"
    fill="white"/>
  <path
    d="M79.0078 24.6597H77.543V21.3052H78.1655C78.7295 20.9536 78.9858 20.0381 79.0591 18.998L79.3374 14.8672H84.9551V21.3052H86.1489V24.6597H84.6914V22.5723H79.0078V24.6597ZM83.3657 21.3052V16.1343H80.6997L80.4873 19.064C80.4287 19.9868 80.2383 20.7632 79.8647 21.2686V21.3052H83.3657Z"
    fill="white"/>
  <path
    d="M69.8164 22.5723V14.8672H71.3838V20.2578H71.457L74.9946 14.8672H76.5547V22.5723H74.98V17.1597H74.9141L71.3765 22.5723H69.8164Z"
    fill="white"/>
  <path
    d="M64.8071 22.7241C62.5952 22.7241 61.1523 21.1934 61.1523 18.7178V18.7031C61.1523 16.2422 62.6172 14.7188 64.8071 14.7188C66.9971 14.7188 68.4619 16.2349 68.4619 18.7031V18.7178C68.4619 21.2007 67.0117 22.7241 64.8071 22.7241ZM64.8145 21.3984C66.0522 21.3984 66.8506 20.417 66.8506 18.7178V18.7031C66.8506 17.0186 66.0376 16.0444 64.8071 16.0444C63.584 16.0444 62.771 17.0186 62.771 18.7031V18.7178C62.771 20.4243 63.5767 21.3984 64.8145 21.3984Z"
    fill="white"/>
  <path
    d="M52.8828 25.1338V14.8652H54.4648V16.1909H54.5015C54.9629 15.2754 55.8125 14.7188 56.9111 14.7188C58.874 14.7188 60.1338 16.2568 60.1338 18.7178V18.7251C60.1338 21.1787 58.8667 22.7241 56.9331 22.7241C55.8418 22.7241 54.9556 22.1675 54.5015 21.2739H54.4648V25.1338H52.8828ZM56.501 21.3618C57.7461 21.3618 58.5225 20.3511 58.5225 18.7251V18.7178C58.5225 17.0771 57.7461 16.0737 56.501 16.0737C55.2998 16.0737 54.4575 17.1138 54.4575 18.7178V18.7251C54.4575 20.3218 55.3071 21.3618 56.501 21.3618Z"
    fill="white"/>
  <path
    d="M44.6602 24.6597H43.1953V21.3052H43.8179C44.3818 20.9536 44.6382 20.0381 44.7114 18.998L44.9897 14.8672H50.6074V21.3052H51.8013V24.6597H50.3438V22.5723H44.6602V24.6597ZM49.0181 21.3052V16.1343H46.3521L46.1396 19.064C46.0811 19.9868 45.8906 20.7632 45.5171 21.2686V21.3052H49.0181Z"
    fill="white"/>
  <path
    d="M40.624 22.5723V19.2251H37.1523V22.5723H35.5703V14.8672H37.1523V17.9727H40.624V14.8672H42.2061V22.5723H40.624Z"
    fill="white"/>
  <path
    d="M25 22.5688L28.8452 12H30.6177L34.4556 22.5688H32.7344L31.7676 19.7124H27.6953L26.7212 22.5688H25ZM29.7168 13.7505L28.1348 18.394H31.3208L29.7461 13.7505H29.7168Z"
    fill="white"/>
  <path fill-rule="evenodd" clip-rule="evenodd"
        d="M14.1695 5.36866C14.2071 5.31237 14.2446 5.27485 14.3009 5.21857L16.0832 3.43621C16.6648 2.8546 17.6216 2.8546 18.222 3.43621C18.8036 4.01782 18.8036 4.97466 18.222 5.55627L16.6836 7.07597C18.0156 8.333 18.8036 9.89021 19.1225 11.7289C19.2914 12.742 18.9724 13.136 17.8468 13.136H1.48684C0.286112 13.1547 -0.126638 12.7232 0.079737 11.6726C0.417442 9.98402 1.11161 8.53938 2.18101 7.37616L0.436202 5.65008C-0.145401 5.06847 -0.145401 4.11163 0.436202 3.53002C1.0178 2.94841 1.97464 2.94841 2.575 3.53002L4.35733 5.31237C4.43238 5.38742 4.50742 5.48123 4.5637 5.57504C4.90141 5.38742 5.27664 5.21856 5.65187 5.06847C8.5974 3.90525 11.4679 4.03658 14.1695 5.36866ZM5.93329 9.75888C5.93329 10.1716 5.59558 10.5093 5.18283 10.5093C4.77008 10.5093 4.43238 10.1716 4.43238 9.75888C4.43238 9.34613 4.77008 9.00842 5.18283 9.00842C5.59558 9.00842 5.93329 9.34613 5.93329 9.75888ZM14.0007 10.5093C14.4134 10.5093 14.7511 10.1716 14.7511 9.75888C14.7511 9.34613 14.4134 9.00842 14.0007 9.00842C13.5879 9.00842 13.2502 9.34613 13.2502 9.75888C13.2502 10.1716 13.5879 10.5093 14.0007 10.5093Z"
        fill="#A4C639"/>
  <path
    d="M1.1512 21.4257C1.54519 21.4257 1.75157 21.2193 1.90166 20.7128L2.14556 19.9811H4.20931L4.43444 20.7128C4.58453 21.2193 4.80967 21.4257 5.20366 21.4257C5.63517 21.4257 5.91659 21.1818 5.91659 20.7878C5.91659 20.6377 5.87907 20.4501 5.80402 20.2062L4.45321 16.2475C4.20931 15.5158 3.8716 15.2344 3.21495 15.2344C2.5583 15.2344 2.2206 15.5346 1.9767 16.2475L0.607123 20.2062C0.494555 20.5064 0.457031 20.6753 0.457031 20.8253C0.457031 21.1631 0.738451 21.4257 1.1512 21.4257ZM2.44574 18.8929L3.13991 16.5665H3.21495L3.90912 18.8929H2.44574Z"
    fill="#A4C639"/>
  <path
    d="M7.84888 21.407C8.31791 21.407 8.59934 21.1068 8.59934 20.6002V19.3995H9.59369C11.0008 19.3995 11.8638 18.649 11.8638 17.3169C11.8638 16.0599 11.0196 15.2344 9.66874 15.2344H8.09278C7.37985 15.2344 7.11719 15.5158 7.11719 16.2475V20.6002C7.11719 21.1255 7.37985 21.407 7.84888 21.407ZM8.59934 18.3113V16.3976H9.4436C10.044 16.3976 10.3817 16.7541 10.3817 17.3544C10.3817 18.0674 10.044 18.3113 9.27475 18.3113H8.59934Z"
    fill="#A4C639"/>
  <path
    d="M17.3386 21.4132C17.7701 21.4132 18.0515 21.1318 18.0515 20.7191C18.0515 20.5127 17.9764 20.3626 17.7513 20.0436L16.2129 17.9799L17.6575 16.4226C17.8639 16.2163 17.9202 16.0662 17.9202 15.8785C17.9202 15.5221 17.6387 15.2219 17.2635 15.2219C17.0571 15.2219 16.8883 15.3157 16.6819 15.5408L14.6182 17.7735H14.5243V16.0099C14.5243 15.5033 14.2617 15.2031 13.7739 15.2031C13.3049 15.2031 13.0234 15.4846 13.0234 16.0099V20.6252C13.0234 21.1318 13.3049 21.432 13.7927 21.432C14.2617 21.432 14.5243 21.1506 14.5243 20.6252V19.4808L15.0872 18.8992L16.5881 20.9442C16.832 21.2631 17.0571 21.4132 17.3386 21.4132Z"
    fill="#A4C639"/>
</svg>
