<svg width="100.000000" height="25.000000" viewBox="0 0 100 25" fill="none" xmlns="http://www.w3.org/2000/svg"
     xmlns:xlink="http://www.w3.org/1999/xlink">
  <desc>
    Created with Pixso.
  </desc>
  <defs/>
  <path id="&lt;Path&gt;"
        d="M14.79 11.3C14.8 10.46 15.02 9.64 15.44 8.92C15.85 8.19 16.44 7.58 17.15 7.14C16.7 6.5 16.1 5.97 15.41 5.59C14.72 5.22 13.94 5.01 13.16 4.99C11.48 4.81 9.85 5.99 9 5.99C8.12 5.99 6.81 5 5.39 5.03C4.47 5.06 3.57 5.33 2.79 5.81C2.01 6.28 1.36 6.96 0.91 7.76C-1.02 11.11 0.42 16.03 2.27 18.74C3.2 20.06 4.28 21.54 5.7 21.49C7.09 21.43 7.61 20.61 9.28 20.61C10.94 20.61 11.43 21.49 12.87 21.46C14.36 21.43 15.3 20.12 16.19 18.79C16.86 17.84 17.37 16.8 17.71 15.69C16.85 15.33 16.11 14.72 15.59 13.93C15.07 13.15 14.79 12.23 14.79 11.3Z"
        fill="#FFFFFF" fill-opacity="1.000000" fill-rule="nonzero"/>
  <path id="&lt;Path&gt;"
        d="M12.06 3.21C12.87 2.23 13.27 0.98 13.18 -0.28C11.94 -0.15 10.79 0.44 9.97 1.38C9.57 1.83 9.26 2.37 9.06 2.94C8.87 3.52 8.79 4.13 8.83 4.74C9.45 4.74 10.06 4.61 10.62 4.34C11.18 4.08 11.67 3.69 12.06 3.21Z"
        fill="#FFFFFF" fill-opacity="1.000000" fill-rule="nonzero"/>
  <path id="Vector"
        d="M32.33 18.13L27.59 18.13L26.46 21.49L24.45 21.49L28.94 9.07L31.02 9.07L35.5 21.49L33.46 21.49L32.33 18.13ZM28.08 16.59L31.84 16.59L29.99 11.14L29.93 11.14L28.08 16.59Z"
        fill="#FFFFFF" fill-opacity="1.000000" fill-rule="nonzero"/>
  <path id="Vector"
        d="M45.18 16.96C45.18 19.78 43.68 21.59 41.41 21.59C40.83 21.62 40.26 21.48 39.75 21.2C39.25 20.92 38.83 20.51 38.56 20L38.51 20L38.51 24.49L36.66 24.49L36.66 12.44L38.45 12.44L38.45 13.94L38.49 13.94C38.78 13.44 39.2 13.03 39.71 12.74C40.22 12.46 40.79 12.32 41.37 12.34C43.67 12.34 45.18 14.16 45.18 16.96ZM43.27 16.96C43.27 15.13 42.33 13.93 40.88 13.93C39.46 13.93 38.51 15.16 38.51 16.96C38.51 18.79 39.46 20.01 40.88 20.01C42.33 20.01 43.27 18.81 43.27 16.96Z"
        fill="#FFFFFF" fill-opacity="1.000000" fill-rule="nonzero"/>
  <path id="Vector"
        d="M55.15 16.96C55.15 19.78 53.64 21.59 51.37 21.59C50.79 21.62 50.22 21.48 49.72 21.2C49.21 20.92 48.8 20.51 48.52 20L48.48 20L48.48 24.49L46.62 24.49L46.62 12.44L48.42 12.44L48.42 13.94L48.45 13.94C48.74 13.44 49.17 13.03 49.67 12.74C50.18 12.46 50.76 12.32 51.34 12.34C53.63 12.34 55.15 14.16 55.15 16.96ZM53.24 16.96C53.24 15.13 52.29 13.93 50.85 13.93C49.43 13.93 48.47 15.16 48.47 16.96C48.47 18.79 49.43 20.01 50.85 20.01C52.29 20.01 53.24 18.81 53.24 16.96Z"
        fill="#FFFFFF" fill-opacity="1.000000" fill-rule="nonzero"/>
  <path id="Vector"
        d="M61.73 18.03C61.87 19.26 63.07 20.07 64.7 20.07C66.27 20.07 67.4 19.26 67.4 18.15C67.4 17.19 66.72 16.61 65.11 16.22L63.5 15.83C61.22 15.28 60.16 14.21 60.16 12.48C60.16 10.34 62.03 8.87 64.68 8.87C67.3 8.87 69.1 10.34 69.16 12.48L67.28 12.48C67.17 11.24 66.15 10.49 64.65 10.49C63.15 10.49 62.13 11.25 62.13 12.35C62.13 13.23 62.78 13.75 64.38 14.14L65.75 14.48C68.3 15.08 69.36 16.1 69.36 17.92C69.36 20.24 67.51 21.7 64.56 21.7C61.81 21.7 59.95 20.28 59.83 18.03L61.73 18.03Z"
        fill="#FFFFFF" fill-opacity="1.000000" fill-rule="nonzero"/>
  <path id="Vector"
        d="M73.37 10.3L73.37 12.44L75.09 12.44L75.09 13.91L73.37 13.91L73.37 18.9C73.37 19.68 73.71 20.04 74.47 20.04C74.68 20.03 74.88 20.02 75.08 20L75.08 21.46C74.74 21.52 74.4 21.55 74.05 21.54C72.22 21.54 71.5 20.86 71.5 19.1L71.5 13.91L70.19 13.91L70.19 12.44L71.5 12.44L71.5 10.3L73.37 10.3Z"
        fill="#FFFFFF" fill-opacity="1.000000" fill-rule="nonzero"/>
  <path id="Vector"
        d="M76.09 16.97C76.09 14.12 77.77 12.33 80.38 12.33C83.01 12.33 84.68 14.12 84.68 16.97C84.68 19.82 83.02 21.6 80.38 21.6C77.75 21.6 76.09 19.82 76.09 16.97ZM82.78 16.97C82.78 15.01 81.89 13.86 80.38 13.86C78.88 13.86 77.98 15.02 77.98 16.97C77.98 18.93 78.88 20.07 80.38 20.07C81.89 20.07 82.78 18.93 82.78 16.97Z"
        fill="#FFFFFF" fill-opacity="1.000000" fill-rule="nonzero"/>
  <path id="Vector"
        d="M86.21 12.44L87.98 12.44L87.98 13.98L88.03 13.98C88.15 13.5 88.43 13.07 88.82 12.77C89.22 12.48 89.71 12.32 90.2 12.34C90.42 12.34 90.63 12.36 90.84 12.41L90.84 14.15C90.57 14.07 90.29 14.03 90 14.04C89.73 14.03 89.47 14.07 89.22 14.18C88.97 14.28 88.74 14.44 88.56 14.63C88.37 14.83 88.23 15.07 88.15 15.32C88.07 15.58 88.04 15.85 88.07 16.12L88.07 21.49L86.21 21.49L86.21 12.44Z"
        fill="#FFFFFF" fill-opacity="1.000000" fill-rule="nonzero"/>
  <path id="Vector"
        d="M99.41 18.83C99.16 20.48 97.56 21.6 95.51 21.6C92.88 21.6 91.24 19.84 91.24 17.01C91.24 14.17 92.88 12.33 95.43 12.33C97.94 12.33 99.51 14.05 99.51 16.79L99.51 17.43L93.12 17.43L93.12 17.54C93.09 17.88 93.13 18.21 93.24 18.53C93.35 18.84 93.53 19.13 93.76 19.37C93.99 19.62 94.27 19.81 94.58 19.93C94.89 20.06 95.22 20.12 95.55 20.11C95.99 20.15 96.43 20.05 96.81 19.82C97.19 19.59 97.48 19.24 97.64 18.83L99.41 18.83ZM93.13 16.13L97.65 16.13C97.67 15.83 97.62 15.53 97.52 15.25C97.41 14.97 97.25 14.71 97.04 14.5C96.84 14.28 96.58 14.11 96.31 14C96.03 13.88 95.73 13.83 95.43 13.83C95.13 13.83 94.83 13.89 94.55 14C94.27 14.12 94.01 14.29 93.8 14.5C93.59 14.72 93.42 14.97 93.3 15.25C93.18 15.53 93.12 15.83 93.13 16.13Z"
        fill="#FFFFFF" fill-opacity="1.000000" fill-rule="nonzero"/>
  <path id="Vector"
        d="M26.76 2.25L27.56 2.25C27.69 2.27 27.83 2.25 27.97 2.21C28.1 2.18 28.22 2.11 28.33 2.02C28.43 1.93 28.52 1.82 28.58 1.7C28.64 1.57 28.68 1.44 28.68 1.3C28.68 0.75 28.27 0.39 27.57 0.39C27.43 0.37 27.28 0.38 27.14 0.42C27.01 0.45 26.88 0.52 26.77 0.6C26.65 0.69 26.56 0.8 26.49 0.92C26.42 1.05 26.38 1.18 26.36 1.33L25.49 1.33C25.5 1.07 25.57 0.82 25.68 0.59C25.8 0.36 25.96 0.16 26.16 -0.01C26.36 -0.17 26.59 -0.29 26.83 -0.36C27.08 -0.43 27.34 -0.45 27.59 -0.42C28.77 -0.42 29.6 0.24 29.6 1.19C29.6 1.5 29.49 1.81 29.3 2.06C29.1 2.31 28.82 2.48 28.51 2.55L28.51 2.62C28.88 2.64 29.23 2.8 29.47 3.07C29.72 3.34 29.85 3.7 29.84 4.06C29.81 4.33 29.73 4.58 29.61 4.82C29.48 5.05 29.31 5.25 29.1 5.42C28.89 5.58 28.65 5.71 28.4 5.78C28.14 5.85 27.87 5.87 27.61 5.84C27.35 5.87 27.08 5.86 26.82 5.79C26.57 5.72 26.33 5.59 26.12 5.43C25.91 5.27 25.73 5.06 25.6 4.83C25.48 4.59 25.4 4.34 25.37 4.07L26.26 4.07C26.31 4.64 26.84 5.01 27.61 5.01C28.38 5.01 28.89 4.6 28.89 4.01C28.89 3.42 28.41 3.06 27.58 3.06L26.76 3.06L26.76 2.25Z"
        fill="#FFFFFF" fill-opacity="1.000000" fill-rule="nonzero"/>
  <path id="Vector"
        d="M30.85 4.42C30.85 3.61 31.46 3.14 32.53 3.07L33.75 3L33.75 2.62C33.75 2.14 33.43 1.87 32.82 1.87C32.33 1.87 31.98 2.05 31.88 2.37L31.02 2.37C31.12 1.6 31.84 1.1 32.87 1.1C33.99 1.1 34.63 1.66 34.63 2.62L34.63 5.69L33.77 5.69L33.77 5.06L33.7 5.06C33.56 5.29 33.36 5.47 33.12 5.6C32.89 5.72 32.62 5.78 32.35 5.77C32.16 5.79 31.97 5.77 31.79 5.71C31.61 5.65 31.44 5.55 31.3 5.43C31.16 5.3 31.05 5.14 30.97 4.97C30.89 4.8 30.85 4.61 30.85 4.42ZM33.75 4.03L33.75 3.66L32.65 3.73C32.03 3.77 31.74 3.98 31.74 4.38C31.74 4.78 32.1 5.02 32.58 5.02C32.72 5.03 32.86 5.02 33 4.98C33.14 4.93 33.26 4.87 33.37 4.77C33.48 4.68 33.57 4.57 33.63 4.44C33.7 4.31 33.74 4.18 33.75 4.03Z"
        fill="#FFFFFF" fill-opacity="1.000000" fill-rule="nonzero"/>
  <path id="Vector" d="M36.99 1.94L36.99 5.69L36.1 5.69L36.1 1.19L39.07 1.19L39.07 1.94L36.99 1.94Z" fill="#FFFFFF"
        fill-opacity="1.000000" fill-rule="nonzero"/>
  <path id="Vector"
        d="M44.45 3.44C44.45 4.87 43.73 5.77 42.59 5.77C42.31 5.79 42.03 5.72 41.79 5.59C41.54 5.46 41.34 5.26 41.2 5.01L41.13 5.01L41.13 7.19L40.25 7.19L40.25 1.19L41.1 1.19L41.1 1.93L41.17 1.93C41.3 1.68 41.51 1.47 41.76 1.32C42.01 1.18 42.29 1.11 42.58 1.11C43.73 1.11 44.45 2.01 44.45 3.44ZM43.54 3.44C43.54 2.49 43.09 1.91 42.33 1.91C41.58 1.91 41.12 2.5 41.12 3.44C41.12 4.38 41.58 4.97 42.33 4.97C43.09 4.97 43.54 4.39 43.54 3.44Z"
        fill="#FFFFFF" fill-opacity="1.000000" fill-rule="nonzero"/>
  <path id="Vector"
        d="M45.63 7.31L45.63 6.54C45.73 6.55 45.83 6.56 45.92 6.56C46.11 6.57 46.3 6.52 46.45 6.4C46.6 6.28 46.7 6.12 46.74 5.93L46.8 5.71L45.17 1.19L46.14 1.19L47.27 4.77L47.34 4.77L48.47 1.19L49.41 1.19L47.73 5.88C47.35 6.97 46.92 7.33 46 7.33C45.93 7.33 45.72 7.32 45.63 7.31Z"
        fill="#FFFFFF" fill-opacity="1.000000" fill-rule="nonzero"/>
  <path id="Vector"
        d="M50.1 4.42L50.99 4.42C51.07 4.81 51.44 5.02 51.96 5.02C52.56 5.02 52.92 4.76 52.92 4.35C52.92 3.92 52.59 3.71 51.96 3.71L51.29 3.71L51.29 3.02L51.95 3.02C52.49 3.02 52.76 2.82 52.76 2.44C52.76 2.11 52.5 1.86 51.95 1.86C51.46 1.86 51.09 2.07 51.04 2.42L50.18 2.42C50.24 2.01 50.46 1.65 50.8 1.4C51.13 1.15 51.54 1.05 51.95 1.1C53.02 1.1 53.64 1.59 53.64 2.35C53.64 2.56 53.57 2.77 53.44 2.93C53.31 3.1 53.13 3.22 52.92 3.27L52.92 3.34C53.17 3.37 53.4 3.49 53.56 3.68C53.72 3.87 53.81 4.11 53.81 4.35C53.81 5.21 53.08 5.78 51.96 5.78C50.98 5.78 50.18 5.33 50.1 4.42Z"
        fill="#FFFFFF" fill-opacity="1.000000" fill-rule="nonzero"/>
  <path id="Vector"
        d="M55.09 5.69L55.09 1.19L55.97 1.19L55.97 4.29L56.04 4.29L58.12 1.19L59 1.19L59 5.69L58.12 5.69L58.12 2.58L58.05 2.58L55.97 5.69L55.09 5.69Z"
        fill="#FFFFFF" fill-opacity="1.000000" fill-rule="nonzero"/>
  <path id="Vector"
        d="M63.85 1.94L62.43 1.94L62.43 5.69L61.54 5.69L61.54 1.94L60.12 1.94L60.12 1.19L63.85 1.19L63.85 1.94Z"
        fill="#FFFFFF" fill-opacity="1.000000" fill-rule="nonzero"/>
  <path id="Vector"
        d="M68.63 4.48C68.51 4.89 68.25 5.24 67.89 5.48C67.54 5.72 67.11 5.83 66.68 5.78C66.38 5.79 66.09 5.73 65.82 5.61C65.54 5.5 65.3 5.32 65.1 5.1C64.9 4.88 64.76 4.62 64.67 4.33C64.58 4.05 64.56 3.75 64.6 3.46C64.56 3.16 64.58 2.86 64.67 2.58C64.76 2.29 64.9 2.03 65.1 1.81C65.3 1.58 65.54 1.4 65.81 1.28C66.08 1.16 66.38 1.1 66.68 1.1C67.93 1.1 68.69 1.96 68.69 3.37L68.69 3.68L65.51 3.68L65.51 3.73C65.49 3.9 65.51 4.06 65.57 4.22C65.62 4.38 65.71 4.52 65.82 4.64C65.93 4.76 66.07 4.86 66.22 4.93C66.38 4.99 66.54 5.02 66.71 5.02C66.92 5.05 67.13 5.01 67.32 4.91C67.51 4.82 67.67 4.66 67.78 4.48L68.63 4.48ZM65.51 3.03L67.78 3.03C67.79 2.87 67.77 2.72 67.72 2.58C67.67 2.44 67.59 2.31 67.48 2.2C67.38 2.09 67.25 2 67.11 1.94C66.97 1.88 66.82 1.86 66.67 1.86C66.52 1.86 66.37 1.89 66.22 1.94C66.08 2 65.95 2.09 65.84 2.2C65.73 2.3 65.65 2.43 65.59 2.58C65.53 2.72 65.5 2.87 65.51 3.03Z"
        fill="#FFFFFF" fill-opacity="1.000000" fill-rule="nonzero"/>
  <path id="Vector"
        d="M72.4 1.19L74.43 1.19C75.31 1.19 75.83 1.64 75.83 2.34C75.83 2.56 75.76 2.77 75.62 2.95C75.48 3.12 75.29 3.24 75.07 3.29L75.07 3.36C75.33 3.37 75.58 3.49 75.76 3.68C75.94 3.88 76.03 4.13 76.03 4.39C76.03 5.18 75.44 5.69 74.45 5.69L72.4 5.69L72.4 1.19ZM73.28 1.87L73.28 3.04L74.16 3.04C74.7 3.04 74.96 2.83 74.96 2.45C74.96 2.1 74.73 1.87 74.26 1.87L73.28 1.87ZM73.28 3.69L73.28 5.01L74.34 5.01C74.86 5.01 75.14 4.78 75.14 4.35C75.14 3.9 74.82 3.69 74.22 3.69L73.28 3.69Z"
        fill="#FFFFFF" fill-opacity="1.000000" fill-rule="nonzero"/>
</svg>
