<svg width="101.000000" height="24.000000" viewBox="0 0 110 24" fill="none" xmlns="http://www.w3.org/2000/svg"
     xmlns:xlink="http://www.w3.org/1999/xlink">
  <desc>
    Created with Pixso.
  </desc>
  <defs/>
  <path id="Vector"
        d="M50.09 12.58C48.03 12.58 46.34 14.15 46.34 16.32C46.34 18.49 48.02 20.06 50.09 20.06C52.16 20.06 53.84 18.47 53.84 16.32C53.84 14.17 52.16 12.58 50.09 12.58ZM50.09 18.58C48.96 18.58 47.98 17.65 47.98 16.32C47.98 14.99 48.96 14.06 50.09 14.06C51.22 14.06 52.2 14.98 52.2 16.32C52.2 17.67 51.22 18.58 50.09 18.58ZM41.91 12.58C39.84 12.58 38.16 14.15 38.16 16.32C38.16 18.49 39.84 20.06 41.91 20.06C43.98 20.06 45.66 18.47 45.66 16.32C45.66 14.17 43.97 12.58 41.91 12.58ZM41.91 18.58C40.78 18.58 39.8 17.65 39.8 16.32C39.8 14.99 40.78 14.06 41.91 14.06C43.04 14.06 44.02 14.98 44.02 16.32C44.02 17.67 43.04 18.58 41.91 18.58ZM32.18 13.73L32.18 15.31L35.97 15.31C35.86 16.21 35.56 16.86 35.11 17.31C34.55 17.86 33.69 18.47 32.18 18.47C29.84 18.47 28.01 16.59 28.01 14.25C28.01 11.92 29.84 10.04 32.18 10.04C33.44 10.04 34.36 10.53 35.04 11.17L36.15 10.05C35.2 9.14 33.94 8.45 32.18 8.45C28.98 8.45 26.29 11.06 26.29 14.25C26.29 17.45 28.98 20.06 32.18 20.06C33.9 20.06 35.2 19.49 36.23 18.43C37.27 17.38 37.6 15.91 37.6 14.72C37.6 14.35 37.57 14.01 37.51 13.73L32.18 13.73L32.18 13.73ZM71.98 14.96C71.67 14.13 70.72 12.58 68.78 12.58C66.84 12.58 65.26 14.1 65.26 16.32C65.26 18.42 66.84 20.06 68.97 20.06C70.68 20.06 71.67 19.01 72.08 18.4L70.81 17.55C70.38 18.17 69.8 18.58 68.97 18.58C68.13 18.58 67.54 18.2 67.15 17.45L72.15 15.39L71.98 14.96L71.98 14.96ZM66.89 16.21C66.84 14.76 68 14.03 68.84 14.03C69.49 14.03 70.04 14.35 70.23 14.82L66.89 16.21L66.89 16.21ZM62.82 19.83L64.46 19.83L64.46 8.85L62.82 8.85L62.82 19.83ZM60.13 13.42L60.08 13.42C59.71 12.98 59 12.58 58.11 12.58C56.24 12.58 54.53 14.22 54.53 16.33C54.53 18.44 56.24 20.06 58.11 20.06C59 20.06 59.71 19.66 60.08 19.21L60.13 19.21L60.13 19.74C60.13 21.17 59.37 21.94 58.14 21.94C57.13 21.94 56.51 21.22 56.26 20.61L54.83 21.2C55.24 22.19 56.33 23.41 58.14 23.41C60.06 23.41 61.69 22.28 61.69 19.52L61.69 12.81L60.13 12.81L60.13 13.42L60.13 13.42ZM58.25 18.58C57.12 18.58 56.17 17.64 56.17 16.34C56.17 15.03 57.12 14.06 58.25 14.06C59.38 14.06 60.25 15.02 60.25 16.34C60.25 17.65 59.37 18.58 58.25 18.58ZM79.67 8.85L75.74 8.85L75.74 19.83L77.38 19.83L77.38 15.67L79.67 15.67C81.49 15.67 83.27 14.35 83.27 12.26C83.27 10.17 81.49 8.85 79.67 8.85ZM79.71 14.14L77.38 14.14L77.38 10.38L79.71 10.38C80.94 10.38 81.64 11.39 81.64 12.26C81.64 13.12 80.94 14.14 79.71 14.14L79.71 14.14ZM89.84 12.56C88.66 12.56 87.43 13.09 86.92 14.24L88.38 14.85C88.69 14.24 89.27 14.04 89.87 14.04C90.72 14.04 91.58 14.55 91.6 15.46L91.6 15.57C91.3 15.4 90.66 15.15 89.89 15.15C88.32 15.15 86.72 16.01 86.72 17.62C86.72 19.09 88.01 20.03 89.45 20.03C90.55 20.03 91.16 19.54 91.54 18.96L91.6 18.96L91.6 19.81L93.18 19.81L93.18 15.6C93.18 13.65 91.73 12.56 89.85 12.56L89.84 12.56ZM89.65 18.58C89.11 18.58 88.36 18.31 88.36 17.65C88.36 16.8 89.29 16.48 90.1 16.48C90.82 16.48 91.16 16.63 91.6 16.84C91.47 17.86 90.6 18.58 89.65 18.58L89.65 18.58ZM98.94 12.8L97.06 17.56L97.01 17.56L95.06 12.8L93.29 12.8L96.22 19.46L94.55 23.16L96.26 23.16L100.77 12.8L98.94 12.8L98.94 12.8ZM84.18 19.83L85.82 19.83L85.82 8.85L84.18 8.85L84.18 19.83Z"
        fill="#FFFFFF" fill-opacity="1.000000" fill-rule="nonzero"/>
  <path id="Vector"
        d="M8.44 10.54L-0.92 20.47C-0.92 20.47 -0.92 20.47 -0.92 20.47C-0.63 21.55 0.35 22.34 1.52 22.34C1.99 22.34 2.43 22.22 2.8 21.99L2.83 21.98L13.36 15.9L8.43 10.54L8.44 10.54Z"
        fill="#EA4435" fill-opacity="1.000000" fill-rule="nonzero"/>
  <path id="Vector"
        d="M17.9 8.85L17.89 8.84L13.34 6.21L8.22 10.76L13.36 15.9L17.88 13.29C18.68 12.86 19.21 12.03 19.21 11.07C19.21 10.1 18.68 9.28 17.9 8.85L17.9 8.85Z"
        fill="#F9BC15" fill-opacity="1.000000" fill-rule="nonzero"/>
  <path id="Vector"
        d="M-0.92 1.62C-0.97 1.83 -1 2.05 -1 2.27L-1 19.82C-1 20.04 -0.97 20.26 -0.92 20.47L8.76 10.79L-0.92 1.62L-0.92 1.62Z"
        fill="#547DBF" fill-opacity="1.000000" fill-rule="nonzero"/>
  <path id="Vector"
        d="M8.5 11.05L13.35 6.21L2.83 0.11C2.45 -0.12 2 -0.25 1.52 -0.25C0.36 -0.25 -0.63 0.54 -0.92 1.62C-0.92 1.62 -0.92 1.62 -0.92 1.62L8.51 11.05L8.5 11.05Z"
        fill="#33A851" fill-opacity="1.000000" fill-rule="nonzero"/>
  <path id="Vector"
        d="M28.07 4.76C27.64 4.51 27.29 4.17 27.04 3.73C26.79 3.29 26.67 2.81 26.67 2.27C26.67 1.74 26.79 1.26 27.04 0.82C27.29 0.38 27.64 0.04 28.07 -0.21C28.51 -0.46 28.99 -0.58 29.52 -0.58C30.34 -0.58 31.02 -0.29 31.54 0.31L30.96 0.88C30.77 0.66 30.56 0.49 30.33 0.38C30.1 0.27 29.83 0.21 29.53 0.21C29.16 0.21 28.82 0.29 28.51 0.46C28.21 0.64 27.96 0.88 27.78 1.19C27.61 1.51 27.52 1.87 27.52 2.27C27.52 2.68 27.61 3.04 27.78 3.35C27.96 3.67 28.21 3.91 28.51 4.08C28.82 4.25 29.16 4.34 29.53 4.34C30.15 4.34 30.67 4.08 31.09 3.56L31.7 4.14C31.43 4.45 31.12 4.7 30.74 4.87C30.37 5.04 29.96 5.13 29.52 5.13C28.99 5.13 28.51 5.01 28.07 4.76L28.07 4.76Z"
        fill="#FFFFFF" fill-opacity="1.000000" fill-rule="nonzero"/>
  <path id="Vector"
        d="M32.64 -0.46L33.48 -0.46L33.48 2.19L33.52 2.19L35.7 -0.46L36.76 -0.46L36.76 -0.42L34.45 2.32L36.88 4.96L36.88 5.01L35.78 5.01L33.53 2.5L33.48 2.5L33.48 5.01L32.64 5.01L32.64 -0.46L32.64 -0.46Z"
        fill="#FFFFFF" fill-opacity="1.000000" fill-rule="nonzero"/>
  <path id="Vector"
        d="M39.47 -0.46L40.42 -0.46L42.5 5.01L41.57 5.01L41.07 3.61L38.83 3.61L38.33 5.01L37.4 5.01L39.47 -0.46L39.47 -0.46ZM40.79 2.83L40.18 1.15L39.98 0.52L39.93 0.52L39.72 1.15L39.11 2.83L40.79 2.83L40.79 2.83Z"
        fill="#FFFFFF" fill-opacity="1.000000" fill-rule="nonzero"/>
  <path id="Vector"
        d="M45.66 2.57C45.32 2.88 44.9 3.03 44.4 3.03C44.07 3.03 43.77 2.96 43.5 2.82C43.24 2.69 43.03 2.49 42.87 2.24C42.72 1.98 42.64 1.69 42.64 1.34L42.64 -0.46L43.49 -0.46L43.49 1.19C43.49 1.52 43.59 1.78 43.78 1.96C43.98 2.14 44.24 2.23 44.56 2.23C45.01 2.23 45.37 2.06 45.66 1.71L45.66 -0.46L46.5 -0.46L46.5 5.02L45.66 5.02L45.66 2.58L45.66 2.57Z"
        fill="#FFFFFF" fill-opacity="1.000000" fill-rule="nonzero"/>
  <path id="Vector"
        d="M49.3 -0.46L50.25 -0.46L52.32 5.01L51.4 5.01L50.89 3.61L48.66 3.61L48.16 5.01L47.23 5.01L49.29 -0.46L49.3 -0.46ZM50.62 2.83L50.01 1.15L49.8 0.52L49.76 0.52L49.55 1.15L48.94 2.83L50.62 2.83L50.62 2.83Z"
        fill="#FFFFFF" fill-opacity="1.000000" fill-rule="nonzero"/>
  <path id="Vector"
        d="M53.75 0.33L52.21 0.33L52.21 -0.46L56.12 -0.46L56.12 0.33L54.59 0.33L54.59 5.01L53.75 5.01L53.75 0.33L53.75 0.33Z"
        fill="#FFFFFF" fill-opacity="1.000000" fill-rule="nonzero"/>
  <path id="Vector"
        d="M56.99 -0.46L57.83 -0.46L57.83 1.49L58.99 1.49C59.33 1.49 59.65 1.56 59.94 1.7C60.23 1.84 60.46 2.04 60.63 2.31C60.81 2.58 60.89 2.89 60.89 3.25C60.89 3.6 60.81 3.92 60.63 4.18C60.46 4.45 60.23 4.66 59.94 4.8C59.65 4.94 59.33 5.01 58.99 5.01L56.99 5.01L56.99 -0.46L56.99 -0.46ZM59.05 4.22C59.25 4.22 59.43 4.18 59.58 4.09C59.73 3.99 59.85 3.87 59.93 3.72C60.01 3.57 60.05 3.41 60.05 3.25C60.05 3.08 60.01 2.92 59.93 2.77C59.85 2.62 59.73 2.5 59.58 2.4C59.43 2.31 59.25 2.26 59.05 2.26L57.83 2.26L57.83 4.22L59.05 4.22Z"
        fill="#FFFFFF" fill-opacity="1.000000" fill-rule="nonzero"/>
  <path id="Vector"
        d="M63.6 -0.46L64.43 -0.46L64.43 2.57L64.39 3.62L64.43 3.62L66.89 -0.46L67.84 -0.46L67.84 5.01L67.01 5.01L67.01 1.91L67.05 0.86L67.01 0.86L64.52 5.01L63.6 5.01L63.6 -0.46L63.6 -0.46Z"
        fill="#FFFFFF" fill-opacity="1.000000" fill-rule="nonzero"/>
  <path id="Vector"
        d="M69.49 4.78C69.14 4.55 68.91 4.2 68.78 3.74L69.55 3.44C69.62 3.72 69.75 3.95 69.94 4.11C70.13 4.27 70.35 4.35 70.61 4.35C70.89 4.35 71.13 4.26 71.33 4.09C71.53 3.91 71.63 3.7 71.63 3.43C71.63 3.27 71.58 3.11 71.48 2.97C71.38 2.83 71.25 2.72 71.08 2.64C70.92 2.56 70.73 2.52 70.53 2.52L70.08 2.52L70.08 1.78L70.49 1.78C70.76 1.78 70.99 1.71 71.18 1.56C71.36 1.41 71.45 1.2 71.45 0.95C71.45 0.72 71.37 0.54 71.2 0.39C71.03 0.24 70.81 0.17 70.56 0.17C70.33 0.17 70.14 0.24 69.98 0.37C69.82 0.51 69.71 0.68 69.65 0.86L68.91 0.56C69.01 0.25 69.21 -0.01 69.49 -0.24C69.78 -0.47 70.13 -0.59 70.57 -0.59C70.9 -0.59 71.19 -0.53 71.45 -0.4C71.71 -0.26 71.91 -0.09 72.05 0.14C72.2 0.37 72.27 0.62 72.27 0.91C72.27 1.44 72.04 1.83 71.58 2.08L71.58 2.13C71.84 2.25 72.05 2.42 72.21 2.64C72.38 2.87 72.46 3.14 72.46 3.46C72.46 3.78 72.38 4.05 72.22 4.31C72.06 4.56 71.83 4.76 71.56 4.91C71.27 5.05 70.96 5.13 70.62 5.13C70.21 5.13 69.83 5.01 69.49 4.77L69.49 4.78Z"
        fill="#FFFFFF" fill-opacity="1.000000" fill-rule="nonzero"/>
</svg>
